<svg width="50" height="50" viewBox="0 0 50 50" fill="none" xmlns="http://www.w3.org/2000/svg">
<circle cx="25" cy="25" r="25" fill="#D0006F" fill-opacity="0.1"/>
<path d="M29.9366 33.0062C28.8366 33.0062 27.7808 33.0062 26.7016 33.0062C26.7249 33.097 26.7374 33.167 26.7616 33.2329C27.0733 34.0687 27.3924 34.9029 27.6958 35.742C27.7599 35.9195 27.8483 35.9862 28.0341 35.9779C28.3141 35.9654 28.5958 35.9679 28.8758 35.977C29.2233 35.9887 29.4349 36.187 29.4316 36.4795C29.4283 36.7704 29.2174 36.9687 28.8649 36.9687C26.3191 36.9737 23.7724 36.9729 21.2266 36.9729C20.8316 36.9729 20.4366 36.9779 20.0416 36.9687C19.6833 36.9604 19.4799 36.7787 19.4749 36.4829C19.4691 36.1737 19.6783 35.9895 20.0533 35.9745C20.0949 35.9729 20.1366 35.9754 20.1783 35.9737C20.4874 35.962 20.8724 36.0562 21.0849 35.907C21.2983 35.757 21.3449 35.3654 21.4549 35.0754C21.7049 34.4154 21.9483 33.7529 22.1933 33.0912C22.1999 33.0737 22.1941 33.0512 22.1941 32.9879C22.0749 32.9879 21.9549 32.9879 21.8349 32.9879C19.1116 32.9879 16.3874 32.9912 13.6641 32.9862C12.3841 32.9845 11.4341 32.3237 11.1091 31.2029C11.0349 30.9479 11.0016 30.6712 11.0016 30.4054C10.9949 25.6445 10.9949 20.8837 10.9983 16.122C10.9991 14.6179 12.0699 13.552 13.5758 13.552C20.8216 13.5504 28.0666 13.5504 35.3124 13.552C36.8283 13.552 37.8899 14.5895 37.9024 16.1062C37.9158 17.717 37.9091 19.3287 37.9024 20.9404C37.9016 21.1629 37.9491 21.3154 38.1416 21.462C38.6733 21.8654 38.9058 22.4254 38.9033 23.0912C38.8991 24.3595 38.9024 25.6279 38.9024 26.8962C38.9024 29.2245 38.9058 31.5529 38.9008 33.882C38.8983 34.912 38.3258 35.6829 37.3941 35.9095C37.1749 35.9629 36.9416 35.972 36.7141 35.9729C35.1858 35.9779 33.6583 35.977 32.1299 35.9754C30.7441 35.9737 29.9424 35.172 29.9391 33.7912C29.9358 33.5412 29.9366 33.2937 29.9366 33.0062ZM11.9924 28.9887C12.1249 28.9945 12.2166 29.002 12.3083 29.002C18.0766 29.0029 23.8441 29.0012 29.6124 29.0079C29.8749 29.0079 29.9433 28.9312 29.9416 28.6745C29.9316 26.8562 29.9349 25.037 29.9366 23.2179C29.9383 21.8287 30.7341 21.0295 32.1174 21.027C33.5933 21.0245 35.0691 21.0262 36.5449 21.0262C36.6558 21.0262 36.7666 21.0262 36.9074 21.0262C36.9074 20.882 36.9074 20.7795 36.9074 20.677C36.9074 19.1912 36.9091 17.7045 36.9066 16.2187C36.9049 15.1304 36.3183 14.5462 35.2299 14.5454C28.0483 14.5445 20.8666 14.5445 13.6849 14.5454C12.5749 14.5454 11.9916 15.1279 11.9916 16.2337C11.9916 20.3595 11.9916 24.4854 11.9916 28.612C11.9924 28.727 11.9924 28.8404 11.9924 28.9887ZM37.9041 28.5129C37.9041 26.7262 37.9066 24.9387 37.9033 23.152C37.9016 22.3995 37.5241 22.0262 36.7691 22.0254C35.2108 22.0237 33.6524 22.0237 32.0941 22.0254C31.2999 22.0262 30.9333 22.3912 30.9333 23.1879C30.9316 26.7295 30.9316 30.2712 30.9333 33.8137C30.9333 34.6037 31.3066 34.9745 32.0983 34.9754C33.6358 34.977 35.1733 34.977 36.7108 34.9754C37.5433 34.9745 37.9033 34.6137 37.9041 33.7795C37.9049 32.0245 37.9041 30.2687 37.9041 28.5129ZM29.9091 31.9895C29.9091 31.2995 29.9091 30.662 29.9091 30.0254C23.9249 30.0254 17.9674 30.0254 11.9808 30.0254C11.9958 30.2995 11.9791 30.552 12.0274 30.792C12.1808 31.5545 12.7799 31.9895 13.6549 31.9879C17.5724 31.982 21.4899 31.9712 25.4074 31.9679C26.7891 31.967 28.1708 31.9812 29.5524 31.9887C29.6641 31.9904 29.7766 31.9895 29.9091 31.9895ZM26.7091 35.9437C26.3491 34.9854 26.0083 34.0637 25.6508 33.1487C25.6233 33.0779 25.4799 33.0145 25.3891 33.012C24.7666 33.0004 24.1441 33.012 23.5216 33.0012C23.3466 32.9979 23.2683 33.057 23.2091 33.2204C22.9741 33.8737 22.7233 34.5204 22.4799 35.1704C22.3866 35.4187 22.2991 35.6695 22.2008 35.9429C23.7133 35.9437 25.1841 35.9437 26.7091 35.9437Z" fill="url(#paint0_linear_13_8835)"/>
<path d="M34.4315 32.9926C34.6799 32.9926 34.929 32.9809 35.1765 32.9959C35.469 33.0134 35.6457 33.1993 35.654 33.4668C35.6624 33.7368 35.4982 33.9551 35.2107 33.9668C34.684 33.9893 34.1549 33.9884 33.6282 33.9676C33.3415 33.9559 33.1732 33.7384 33.1799 33.4701C33.1865 33.2043 33.3657 33.0234 33.654 32.9926C33.6749 32.9901 33.6957 32.9893 33.7157 32.9893C33.954 32.9893 34.1924 32.9893 34.4307 32.9893C34.4315 32.9901 34.4315 32.9909 34.4315 32.9926Z" fill="url(#paint1_linear_13_8835)"/>
<defs>
<linearGradient id="paint0_linear_13_8835" x1="12.242" y1="15.6287" x2="39.8548" y2="19.7288" gradientUnits="userSpaceOnUse">
<stop stop-color="#D0006F"/>
<stop offset="1" stop-color="#0055B2"/>
</linearGradient>
<linearGradient id="paint1_linear_13_8835" x1="33.2902" y1="33.0766" x2="35.5734" y2="33.7842" gradientUnits="userSpaceOnUse">
<stop stop-color="#D0006F"/>
<stop offset="1" stop-color="#0055B2"/>
</linearGradient>
</defs>
</svg>
