<svg width="50" height="50" viewBox="0 0 50 50" fill="none" xmlns="http://www.w3.org/2000/svg">
<circle cx="25" cy="25" r="25" fill="#D0006F" fill-opacity="0.1"/>
<g clip-path="url(#clip0_13_8865)">
<path d="M40.0001 14.2653C40.0001 21.4398 40.0001 28.6142 40.0001 35.7886C39.7506 36.5528 39.2593 37.0051 38.4249 37.0051C34.6505 37.0051 30.8839 37.0051 27.1096 37.0051C26.166 37.0051 25.5421 36.3813 25.5343 35.4221C25.5265 34.7202 25.5343 34.0184 25.5343 33.3165C25.5343 33.2152 25.5343 33.106 25.5343 32.9968C25.1912 32.9968 24.8793 32.9968 24.5361 32.9968C24.5361 33.106 24.5361 33.2152 24.5361 33.3165C24.5361 33.9872 24.5439 34.6578 24.5361 35.3363C24.5361 35.5313 24.5283 35.7262 24.4737 35.9134C24.2866 36.6074 23.7017 37.0051 22.8985 37.0051C19.2333 37.0051 15.5681 37.0051 11.9107 37.0051C10.8423 37.0051 10.4758 36.7556 10.0703 35.7808C10.0703 28.6064 10.0703 21.432 10.0703 14.2575C10.3277 13.4777 10.8267 13.0332 11.6768 13.0332C15.4277 13.0332 19.1787 13.0332 22.9297 13.0332C23.9045 13.0332 24.5205 13.6415 24.5361 14.6163C24.5439 15.3181 24.5361 16.0199 24.5361 16.7218C24.5361 16.8232 24.5361 16.9323 24.5361 17.0415C24.8793 17.0415 25.1912 17.0415 25.5343 17.0415C25.5343 16.9323 25.5343 16.8232 25.5343 16.7218C25.5343 16.0511 25.5343 15.3805 25.5343 14.702C25.5343 13.6337 26.1348 13.0332 27.2031 13.0332C30.9151 13.0332 34.6271 13.0332 38.3391 13.0332C38.4639 13.0332 38.5964 13.0332 38.7212 13.0566C39.4075 13.1814 39.7896 13.6337 40.0001 14.2653ZM13.0493 14.047C12.5814 14.047 12.1525 14.047 11.7235 14.047C11.2245 14.047 11.0529 14.2107 11.0529 14.7098C11.0529 21.5879 11.0529 28.4738 11.0529 35.3519C11.0529 35.8354 11.2245 36.0147 11.7002 36.0147C15.4355 36.0147 19.1631 36.0147 22.8985 36.0147C23.3586 36.0147 23.5302 35.8432 23.5302 35.3753C23.5302 34.6266 23.5224 33.878 23.538 33.1216C23.538 32.9344 23.4834 32.8486 23.2962 32.8097C18.1337 31.6711 15.4823 25.8536 18.0246 21.2292C19.1865 19.1159 20.9645 17.7902 23.3196 17.2443C23.4054 17.2209 23.5302 17.1117 23.5302 17.0415C23.5457 16.2071 23.5379 15.3649 23.5302 14.5305C23.5302 14.2731 23.3586 14.0938 23.1168 14.0782C22.6022 14.0548 22.0875 14.0704 21.5416 14.0704C21.5416 14.3979 21.5416 14.7098 21.5416 15.0218C21.526 15.9342 20.9021 16.558 19.9897 16.5658C18.1961 16.5736 16.4025 16.5736 14.6089 16.5658C13.7043 16.5658 13.0727 15.9186 13.0571 15.014C13.0415 14.6942 13.0493 14.3901 13.0493 14.047ZM38.9864 16.0589C34.8299 16.0589 30.689 16.0589 26.5247 16.0589C26.5247 16.3475 26.5403 16.6204 26.5169 16.8934C26.5013 17.1195 26.5793 17.2053 26.8054 17.2599C30.1275 18.0163 32.6385 20.8627 32.9661 24.2315C33.3482 28.1853 30.8215 31.7725 26.9692 32.7629C26.821 32.8019 26.6729 32.8408 26.5403 32.8798C26.5403 33.2697 26.5403 33.6207 26.5403 33.995C30.6968 33.995 34.8299 33.995 38.9786 33.995C38.9864 28.0137 38.9864 22.0558 38.9864 16.0589ZM32.0147 25.0348C32.0147 21.1668 28.8954 18.0475 25.0352 18.0475C21.1907 18.0475 18.0558 21.1746 18.0558 25.0114C18.0558 28.8949 21.1751 32.0142 25.0586 32.0142C28.8876 32.0142 32.0069 28.8871 32.0147 25.0348ZM26.5325 15.0218C30.7124 15.0218 34.8455 15.0218 39.0019 15.0218C39.0019 14.8892 39.0019 14.7878 39.0019 14.6786C38.9941 14.2341 38.8226 14.047 38.3859 14.047C34.6349 14.047 30.8917 14.047 27.1408 14.047C26.7119 14.047 26.5403 14.2263 26.5247 14.6474C26.5325 14.7644 26.5325 14.8814 26.5325 15.0218ZM14.0474 14.0626C14.0474 14.3823 14.0474 14.663 14.0474 14.9438C14.0552 15.3649 14.2346 15.552 14.6557 15.552C15.2406 15.5598 15.8254 15.552 16.4103 15.552C17.5879 15.552 18.7654 15.552 19.9429 15.552C20.2783 15.552 20.5044 15.4039 20.5278 15.1387C20.5512 14.7878 20.5356 14.4291 20.5356 14.0626C18.3599 14.0626 16.2232 14.0626 14.0474 14.0626ZM34.9858 36.0069C36.1556 36.0069 37.3331 36.0147 38.5107 35.9991C38.807 35.9991 38.9864 35.7886 39.0097 35.4923C39.0175 35.3441 39.0097 35.1881 39.0097 35.0244C37.6372 35.0244 36.3037 35.0244 34.9858 35.0244C34.9858 35.3597 34.9858 35.6638 34.9858 36.0069ZM26.5559 35.0322C26.4545 35.8354 26.6105 36.0147 27.3669 36.0147C28.3339 36.0147 29.2931 36.0147 30.2601 36.0147C30.3614 36.0147 30.4628 36.0147 30.5486 36.0147C30.5486 35.6638 30.5486 35.3597 30.5486 35.0322C29.2385 35.0322 27.905 35.0322 26.5559 35.0322ZM32.7789 35.0166C32.5294 35.0166 32.272 35.0088 32.0225 35.0166C31.7261 35.0244 31.5312 35.2115 31.5234 35.4845C31.5078 35.7496 31.6872 35.9914 31.9757 35.9991C32.4982 36.0225 33.0285 36.0225 33.5509 35.9991C33.8317 35.9914 34.0188 35.7496 34.011 35.4923C34.0032 35.2271 33.8083 35.0322 33.5198 35.0166C33.2702 35.0088 33.0285 35.0166 32.7789 35.0166Z" fill="url(#paint0_linear_13_8865)"/>
<path d="M17.2917 34.0181C18.1807 34.0181 19.0619 34.0181 19.9509 34.0181C20.1926 34.0181 20.3954 34.0883 20.4968 34.3222C20.6293 34.642 20.4188 34.9773 20.0445 35.0085C19.8105 35.0319 19.5766 35.0163 19.3426 35.0163C17.8297 35.0163 16.3247 35.0163 14.8118 35.0163C14.726 35.0163 14.6325 35.0241 14.5467 35.0085C14.2425 34.9773 14.0398 34.7668 14.0476 34.5016C14.0554 34.2287 14.2581 34.0259 14.5701 34.0181C15.4747 34.0103 16.3871 34.0181 17.2917 34.0181Z" fill="url(#paint1_linear_13_8865)"/>
<path d="M28.3338 25.0189C27.9517 24.6524 27.6008 24.3093 27.2577 23.9662C26.9769 23.6854 26.9535 23.3969 27.1875 23.1785C27.4058 22.968 27.6944 22.9914 27.9595 23.2565C28.4118 23.701 28.8563 24.1455 29.3008 24.5978C29.5971 24.902 29.5971 25.1515 29.293 25.4556C28.8407 25.9157 28.3884 26.368 27.9283 26.8203C27.671 27.0699 27.3668 27.0855 27.1563 26.8749C26.9535 26.6566 26.9691 26.3758 27.2187 26.1263C27.5774 25.7676 27.9361 25.4166 28.3338 25.0189Z" fill="url(#paint2_linear_13_8865)"/>
<path d="M21.7288 25.0272C22.1109 25.4093 22.4618 25.7447 22.8049 26.0878C23.0857 26.3685 23.1013 26.6571 22.8673 26.8754C22.649 27.086 22.3682 27.0548 22.0953 26.7896C21.643 26.3451 21.1985 25.9006 20.754 25.4483C20.4577 25.1442 20.4577 24.9025 20.754 24.5983C21.2063 24.1382 21.6586 23.6859 22.1187 23.2336C22.376 22.9763 22.6802 22.9685 22.8907 23.1868C23.1013 23.4052 23.0857 23.6781 22.8283 23.9355C22.4774 24.2942 22.1109 24.6451 21.7288 25.0272Z" fill="url(#paint3_linear_13_8865)"/>
<path d="M24.5438 27.5224C24.1928 27.5224 23.9667 27.2105 24.0603 26.844C24.2942 25.9004 24.5282 24.9568 24.7699 24.0132C24.8557 23.6623 24.9415 23.3113 25.035 22.9682C25.1208 22.6329 25.3704 22.4769 25.6589 22.5549C25.9474 22.6329 26.08 22.8902 26.002 23.2256C25.6823 24.5045 25.3626 25.7912 25.0428 27.0701C24.9649 27.3431 24.8089 27.499 24.5438 27.5224Z" fill="url(#paint4_linear_13_8865)"/>
</g>
<defs>
<linearGradient id="paint0_linear_13_8865" x1="11.4065" y1="15.1597" x2="40.9578" y2="19.7581" gradientUnits="userSpaceOnUse">
<stop stop-color="#D0006F"/>
<stop offset="1" stop-color="#0055B2"/>
</linearGradient>
<linearGradient id="paint1_linear_13_8865" x1="14.3371" y1="34.104" x2="18.3255" y2="37.308" gradientUnits="userSpaceOnUse">
<stop stop-color="#D0006F"/>
<stop offset="1" stop-color="#0055B2"/>
</linearGradient>
<linearGradient id="paint2_linear_13_8865" x1="27.1285" y1="23.3905" x2="29.6467" y2="23.5879" gradientUnits="userSpaceOnUse">
<stop stop-color="#D0006F"/>
<stop offset="1" stop-color="#0055B2"/>
</linearGradient>
<linearGradient id="paint3_linear_13_8865" x1="20.6435" y1="23.3845" x2="23.1608" y2="23.5818" gradientUnits="userSpaceOnUse">
<stop stop-color="#D0006F"/>
<stop offset="1" stop-color="#0055B2"/>
</linearGradient>
<linearGradient id="paint4_linear_13_8865" x1="24.1277" y1="22.9776" x2="26.1301" y2="23.0769" gradientUnits="userSpaceOnUse">
<stop stop-color="#D0006F"/>
<stop offset="1" stop-color="#0055B2"/>
</linearGradient>
<clipPath id="clip0_13_8865">
<rect width="30" height="30" fill="white" transform="translate(10 10)"/>
</clipPath>
</defs>
</svg>
