<svg width="50" height="50" viewBox="0 0 50 50" fill="none" xmlns="http://www.w3.org/2000/svg">
<circle cx="25" cy="25" r="25" fill="#D0006F" fill-opacity="0.1"/>
<g clip-path="url(#clip0_13_8875)">
<path d="M11.8712 28.7576C20.6228 28.7576 29.3321 28.7576 38.0696 28.7576C38.0696 28.6396 38.0696 28.5349 38.0696 28.4302C38.0696 24.0935 38.0696 19.756 38.0696 15.4193C38.0696 14.8591 37.947 14.7373 37.3821 14.7365C37.1384 14.7365 36.8946 14.7435 36.6517 14.7333C36.3649 14.7208 36.1962 14.5412 36.1962 14.2693C36.1962 13.9974 36.3642 13.8138 36.6509 13.8052C37.0017 13.7943 37.3532 13.788 37.7032 13.8076C38.397 13.8466 38.961 14.4255 39.0032 15.1193C39.0095 15.2162 39.0063 15.3138 39.0063 15.4115C39.0063 20.8888 39.0063 26.3662 39.0063 31.8435C39.0063 32.8974 38.4563 33.4498 37.404 33.4498C29.1196 33.4498 20.8353 33.4498 12.5517 33.4498C11.4845 33.4498 10.936 32.8982 10.936 31.8271C10.936 26.3498 10.936 20.8724 10.936 15.3951C10.936 14.3607 11.4915 13.8021 12.5196 13.8013C12.7728 13.8013 13.0267 13.7951 13.2798 13.8044C13.5696 13.8154 13.7407 13.9896 13.7454 14.2591C13.7509 14.5419 13.5759 14.7248 13.2704 14.7349C13.0079 14.7435 12.7438 14.7365 12.4813 14.738C12.0196 14.7404 11.872 14.888 11.872 15.3521C11.8712 18.4998 11.872 21.6482 11.872 24.7958C11.872 26.0044 11.872 27.213 11.872 28.4216C11.8712 28.5255 11.8712 28.631 11.8712 28.7576ZM11.8712 29.7177C11.8712 30.4248 11.8712 31.1052 11.8712 31.7857C11.8712 32.4037 11.9798 32.5115 12.6032 32.5115C20.8462 32.5115 29.0892 32.5115 37.3313 32.5115C37.3993 32.5115 37.4681 32.513 37.536 32.5107C37.9017 32.5005 38.0657 32.338 38.0681 31.9662C38.072 31.2646 38.0696 30.563 38.0681 29.8615C38.0681 29.8162 38.0563 29.7701 38.0493 29.7162C29.3267 29.7177 20.6188 29.7177 11.8712 29.7177Z" fill="url(#paint0_linear_13_8875)"/>
<path d="M34.3265 15.684C28.0741 15.684 21.8608 15.684 15.614 15.684C15.614 15.809 15.614 15.9223 15.614 16.0355C15.614 19.7285 15.614 23.4215 15.614 27.1152C15.614 27.2129 15.6194 27.3105 15.6093 27.4074C15.5819 27.6707 15.3968 27.8355 15.1413 27.8332C14.8866 27.8309 14.7069 27.6629 14.6819 27.398C14.6733 27.3113 14.678 27.223 14.678 27.1348C14.678 22.2824 14.678 17.4293 14.678 12.577C14.678 11.5473 15.2351 10.9941 16.271 10.9941C22.0687 10.9941 27.8671 10.9941 33.6648 10.9941C34.714 10.9941 35.2616 11.5457 35.2616 12.6027C35.2616 17.4551 35.2616 22.3082 35.2616 27.1605C35.2616 27.2676 35.271 27.3785 35.2476 27.4809C35.1921 27.7215 35.0296 27.8426 34.7819 27.8379C34.5343 27.8324 34.3796 27.7012 34.3351 27.459C34.3163 27.3551 34.3265 27.2449 34.3265 27.1379C34.3265 23.4449 34.3265 19.752 34.3265 16.0582C34.3265 15.9434 34.3265 15.8277 34.3265 15.684ZM34.3265 14.7262C34.3265 14.0051 34.3265 13.3145 34.3265 12.6238C34.3265 12.0465 34.2069 11.9293 33.6218 11.9293C27.8538 11.9293 22.0866 11.9293 16.3187 11.9293C16.2796 11.9293 16.2405 11.9293 16.2015 11.9293C15.7726 11.9332 15.6163 12.084 15.6148 12.5066C15.6124 13.1785 15.6132 13.8512 15.6148 14.523C15.6148 14.5879 15.6265 14.6527 15.6335 14.7254C21.864 14.7262 28.0765 14.7262 34.3265 14.7262Z" fill="url(#paint1_linear_13_8875)"/>
<path d="M21.9846 36.243C23.9737 36.243 25.958 36.243 27.9885 36.243C27.8682 36.0829 27.7549 35.9477 27.6596 35.8C27.501 35.5555 27.3408 35.3102 27.2065 35.0516C27.0705 34.7914 27.1619 34.5188 27.3932 34.4016C27.6307 34.2813 27.894 34.3641 28.0299 34.6313C28.3119 35.1868 28.6885 35.668 29.1588 36.0696C29.2783 36.1711 29.4588 36.2258 29.6198 36.2493C29.8877 36.2875 30.169 36.2469 30.4315 36.3032C31.0737 36.4407 31.5041 36.993 31.5182 37.6485C31.5244 37.9313 31.5221 38.2133 31.519 38.4961C31.5143 38.8946 31.3487 39.061 30.9455 39.0618C29.5323 39.0641 28.1198 39.0625 26.7065 39.0625C24.1729 39.0625 21.6393 39.0625 19.1057 39.0625C18.5518 39.0625 18.4213 38.9305 18.4213 38.3719C18.4213 38.1188 18.4143 37.8649 18.4244 37.6118C18.4533 36.8641 19.0565 36.275 19.8041 36.2563C19.8135 36.2563 19.8237 36.2539 19.833 36.2563C20.4916 36.3985 20.9229 36.0516 21.2799 35.568C21.4877 35.2868 21.6869 34.9977 21.8666 34.6985C22.0541 34.386 22.2963 34.2688 22.5533 34.4039C22.8073 34.5383 22.8744 34.8164 22.6901 35.1352C22.4776 35.5055 22.233 35.8571 21.9846 36.243ZM19.358 38.1078C23.1213 38.1078 26.8455 38.1078 30.569 38.1078C30.6307 37.3016 30.5323 37.1922 29.7627 37.1922C28.0385 37.1922 26.3143 37.1922 24.5908 37.1922C23.0323 37.1922 21.4737 37.1907 19.9158 37.193C19.5276 37.1938 19.3666 37.3563 19.3588 37.7414C19.3557 37.8571 19.358 37.9735 19.358 38.1078Z" fill="url(#paint2_linear_13_8875)"/>
<path d="M26.8705 17.9326C26.8275 18.0935 26.808 18.1888 26.7775 18.2802C25.8673 21.0091 24.9572 23.738 24.0447 26.4662C23.9236 26.8271 23.708 26.9677 23.4283 26.8771C23.1462 26.7857 23.0384 26.5482 23.147 26.2193C23.5369 25.038 23.9314 23.8576 24.3244 22.6779C24.8439 21.1193 25.3627 19.5615 25.8869 18.0045C25.9291 17.8795 25.983 17.7146 26.0814 17.6623C26.2181 17.5896 26.4244 17.5474 26.5603 17.599C26.697 17.649 26.783 17.8318 26.8705 17.9326Z" fill="url(#paint3_linear_13_8875)"/>
<path d="M19.1531 22.2221C19.9344 22.8729 20.6828 23.4932 21.4266 24.119C21.5281 24.2042 21.6375 24.3057 21.686 24.4229C21.7735 24.6346 21.6946 24.8276 21.5078 24.9596C21.3039 25.1042 21.1055 25.0659 20.9203 24.912C20.3078 24.401 19.6946 23.8901 19.0813 23.3792C18.7899 23.1362 18.4969 22.8948 18.2071 22.6503C17.868 22.3635 17.8641 22.0831 18.1985 21.8026C19.0781 21.0651 19.9602 20.3292 20.843 19.5948C21.1258 19.3588 21.4031 19.3565 21.5867 19.5799C21.7742 19.8081 21.7242 20.0753 21.443 20.3112C20.6914 20.9409 19.9367 21.5682 19.1531 22.2221Z" fill="url(#paint4_linear_13_8875)"/>
<path d="M30.79 22.2226C29.9978 21.5616 29.2361 20.9272 28.4759 20.2905C28.1806 20.0429 28.165 19.6929 28.4408 19.503C28.6431 19.3632 28.847 19.3835 29.0322 19.5382C29.9525 20.3038 30.8744 21.0687 31.7884 21.8421C32.0666 22.078 32.0595 22.3765 31.7744 22.6163C30.8658 23.3812 29.9525 24.1413 29.0376 24.8976C28.7876 25.1038 28.5228 25.0827 28.3423 24.864C28.1642 24.6468 28.1986 24.3827 28.447 24.1749C29.215 23.5312 29.9861 22.8921 30.79 22.2226Z" fill="url(#paint5_linear_13_8875)"/>
<path d="M24.9808 31.5759C24.6784 31.5759 24.3761 31.5821 24.0745 31.5743C23.7722 31.5665 23.58 31.3774 23.5816 31.1095C23.5831 30.8454 23.7816 30.6493 24.0792 30.6454C24.6933 30.6376 25.3073 30.6376 25.9214 30.6462C26.2214 30.6509 26.412 30.8478 26.4105 31.1165C26.4089 31.3915 26.2222 31.5696 25.9159 31.5751C25.605 31.5806 25.2933 31.5759 24.9808 31.5759Z" fill="url(#paint6_linear_13_8875)"/>
<path d="M30.1048 13.8006C29.2087 13.8006 28.3126 13.8014 27.4165 13.7998C27.029 13.799 26.8407 13.6467 26.8384 13.3396C26.8361 13.0318 27.0298 12.8654 27.4079 12.8654C29.2103 12.8639 31.0118 12.8639 32.8142 12.8654C33.1845 12.8654 33.3907 13.0428 33.3837 13.342C33.3767 13.6303 33.1767 13.7982 32.8236 13.799C31.9165 13.8029 31.0103 13.8006 30.1048 13.8006Z" fill="url(#paint7_linear_13_8875)"/>
<path d="M17.4829 13.3195C17.4899 13.5718 17.2821 13.7906 17.0298 13.7976C16.7774 13.8046 16.5595 13.5976 16.5524 13.3437C16.5454 13.0898 16.7509 12.8734 17.0055 12.8663C17.2595 12.8601 17.4759 13.0656 17.4829 13.3195Z" fill="url(#paint8_linear_13_8875)"/>
<path d="M19.3539 13.3218C19.3594 13.5741 19.1508 13.7921 18.8984 13.7976C18.6453 13.803 18.4289 13.5952 18.4234 13.3413C18.418 13.0866 18.6242 12.8718 18.8789 12.8663C19.1328 12.8608 19.3484 13.0671 19.3539 13.3218Z" fill="url(#paint9_linear_13_8875)"/>
<path d="M21.226 13.3423C21.2205 13.5954 21.0026 13.804 20.7502 13.7978C20.4971 13.7915 20.2893 13.5743 20.2955 13.322C20.3018 13.0673 20.5166 12.8618 20.7713 12.8673C21.0245 12.8728 21.2315 13.0884 21.226 13.3423Z" fill="url(#paint10_linear_13_8875)"/>
</g>
<defs>
<linearGradient id="paint0_linear_13_8875" x1="12.1892" y1="15.5385" x2="39.7046" y2="20.4361" gradientUnits="userSpaceOnUse">
<stop stop-color="#D0006F"/>
<stop offset="1" stop-color="#0055B2"/>
</linearGradient>
<linearGradient id="paint1_linear_13_8875" x1="15.5958" y1="12.4884" x2="35.9423" y2="15.5876" gradientUnits="userSpaceOnUse">
<stop stop-color="#D0006F"/>
<stop offset="1" stop-color="#0055B2"/>
</linearGradient>
<linearGradient id="paint2_linear_13_8875" x1="19.0039" y1="34.766" x2="30.8356" y2="38.8635" gradientUnits="userSpaceOnUse">
<stop stop-color="#D0006F"/>
<stop offset="1" stop-color="#0055B2"/>
</linearGradient>
<linearGradient id="paint3_linear_13_8875" x1="23.2735" y1="18.4036" x2="27.0713" y2="18.5947" gradientUnits="userSpaceOnUse">
<stop stop-color="#D0006F"/>
<stop offset="1" stop-color="#0055B2"/>
</linearGradient>
<linearGradient id="paint4_linear_13_8875" x1="18.1186" y1="19.9149" x2="21.9061" y2="20.2308" gradientUnits="userSpaceOnUse">
<stop stop-color="#D0006F"/>
<stop offset="1" stop-color="#0055B2"/>
</linearGradient>
<linearGradient id="paint5_linear_13_8875" x1="28.3984" y1="19.9088" x2="32.1768" y2="20.2233" gradientUnits="userSpaceOnUse">
<stop stop-color="#D0006F"/>
<stop offset="1" stop-color="#0055B2"/>
</linearGradient>
<linearGradient id="paint6_linear_13_8875" x1="23.7078" y1="30.7229" x2="26.2149" y2="31.6646" gradientUnits="userSpaceOnUse">
<stop stop-color="#D0006F"/>
<stop offset="1" stop-color="#0055B2"/>
</linearGradient>
<linearGradient id="paint7_linear_13_8875" x1="27.1306" y1="12.9474" x2="30.896" y2="16.2255" gradientUnits="userSpaceOnUse">
<stop stop-color="#D0006F"/>
<stop offset="1" stop-color="#0055B2"/>
</linearGradient>
<linearGradient id="paint8_linear_13_8875" x1="16.5938" y1="12.9488" x2="17.5207" y2="13.0643" gradientUnits="userSpaceOnUse">
<stop stop-color="#D0006F"/>
<stop offset="1" stop-color="#0055B2"/>
</linearGradient>
<linearGradient id="paint9_linear_13_8875" x1="18.4649" y1="12.9488" x2="19.3917" y2="13.0642" gradientUnits="userSpaceOnUse">
<stop stop-color="#D0006F"/>
<stop offset="1" stop-color="#0055B2"/>
</linearGradient>
<linearGradient id="paint10_linear_13_8875" x1="20.337" y1="12.9498" x2="21.2638" y2="13.0653" gradientUnits="userSpaceOnUse">
<stop stop-color="#D0006F"/>
<stop offset="1" stop-color="#0055B2"/>
</linearGradient>
<clipPath id="clip0_13_8875">
<rect width="30" height="30" fill="white" transform="translate(10 10)"/>
</clipPath>
</defs>
</svg>
