<svg width="50" height="50" viewBox="0 0 50 50" fill="none" xmlns="http://www.w3.org/2000/svg">
<circle cx="25" cy="25" r="25" fill="#D0006F" fill-opacity="0.1"/>
<g clip-path="url(#clip0_13_8854)">
<path d="M15.6732 39.9999C15.4717 39.9327 15.2607 39.8851 15.0701 39.7952C14.1928 39.3827 13.7154 38.6851 13.6349 37.7187C13.6279 37.6312 13.6303 37.5437 13.6303 37.4554C13.6303 29.1702 13.6295 20.8851 13.6303 12.5999C13.6303 11.3937 14.2646 10.4788 15.342 10.1632C15.599 10.0882 15.8787 10.0577 16.1482 10.0577C20.6232 10.0515 25.0974 10.0523 29.5724 10.0538C31.0693 10.0546 32.0912 11.0679 32.0951 12.5663C32.1013 14.9249 32.0967 17.2843 32.0967 19.6429C32.0967 21.446 32.0974 23.2491 32.0951 25.0531C32.0951 25.1687 32.0935 25.289 32.0654 25.3999C32.0107 25.6163 31.8529 25.7312 31.6349 25.7195C31.406 25.707 31.2553 25.5749 31.2271 25.3366C31.2138 25.221 31.2185 25.1031 31.2185 24.9859C31.2185 20.8531 31.2193 16.7202 31.2178 12.5874C31.2178 11.7374 30.7826 11.0937 30.0217 10.9859C29.3904 10.896 28.7396 10.9413 28.0974 10.9406C28.0506 10.9406 27.9779 11.0491 27.9615 11.1171C27.8928 11.4109 27.8467 11.7093 27.7826 12.0046C27.5763 12.9476 26.7912 13.6171 25.8248 13.6241C23.8459 13.6382 21.867 13.6382 19.8881 13.6234C18.9365 13.6163 18.1623 12.9577 17.9474 12.0218C17.867 11.6718 17.8037 11.3179 17.7326 10.9648C17.0514 10.9648 16.3771 10.9046 15.7185 10.9812C15.0162 11.0632 14.5435 11.6866 14.5084 12.3937C14.5053 12.4616 14.506 12.5304 14.506 12.5984C14.506 20.8835 14.506 29.1687 14.506 37.4538C14.506 38.3288 14.9639 38.9366 15.7443 39.0929C15.8764 39.1195 16.0154 39.121 16.1514 39.121C20.6263 39.1226 25.1006 39.1226 29.5756 39.1218C30.5732 39.1218 31.2107 38.496 31.2154 37.5054C31.2217 36.2382 31.217 34.971 31.2162 33.7038C31.2162 33.6281 31.206 33.5531 31.1982 33.4484C30.6115 33.4484 30.0388 33.4484 29.4662 33.4484C29.1349 33.4484 28.8029 33.4523 28.4717 33.4468C27.9232 33.4374 27.5076 33.1937 27.1982 32.7413C27.1365 32.6507 26.9935 32.5648 26.8873 32.564C24.606 32.5538 22.3248 32.5546 20.0435 32.5616C19.9482 32.5616 19.8029 32.614 19.7646 32.6866C19.4498 33.2804 18.9592 33.564 18.2959 33.571C18.2693 33.571 18.2428 33.5843 18.1928 33.5976C18.1928 34.014 18.1803 34.432 18.1967 34.8476C18.2084 35.1382 18.4123 35.3054 18.731 35.3101C19.2185 35.3171 19.706 35.3101 20.1935 35.3132C20.5381 35.3148 20.7396 35.4749 20.7428 35.7429C20.7459 36.0093 20.5381 36.1859 20.2029 36.189C19.6959 36.1929 19.1888 36.1984 18.6818 36.1874C17.8959 36.171 17.3279 35.5945 17.3131 34.807C17.306 34.4085 17.3115 34.0093 17.3115 33.5976C17.1209 33.5695 16.9373 33.5593 16.7631 33.514C16.0467 33.3296 15.5803 32.6968 15.642 32.007C15.7076 31.2695 16.2412 30.7202 16.9904 30.6718C17.4951 30.6398 18.0045 30.6437 18.5099 30.6702C19.0701 30.6999 19.4724 30.9968 19.7357 31.4937C19.7771 31.5718 19.8795 31.6679 19.9553 31.6695C20.6365 31.6827 21.3178 31.6773 22.0271 31.6773C22.0334 31.5671 22.0435 31.4741 22.0435 31.3812C22.0451 30.7866 22.0404 30.1921 22.0451 29.5976C22.0521 28.7773 22.6217 28.1999 23.4467 28.1929C24.5388 28.1835 25.6303 28.1866 26.7224 28.1937C26.9146 28.1945 27.0232 28.1663 27.106 27.9515C27.3349 27.3577 27.8029 27.0335 28.4357 27.0296C30.5803 27.0163 32.7256 27.0163 34.8701 27.0288C35.6756 27.0335 36.3029 27.6796 36.3123 28.4616C36.3217 29.2538 35.6928 29.9101 34.8732 29.9281C34.0646 29.946 33.2553 29.9327 32.4459 29.9335C32.3404 29.9335 32.2349 29.9335 32.1107 29.9335C32.1107 30.1374 32.1107 30.3171 32.1107 30.5288C32.2146 30.5335 32.3178 30.5421 32.4209 30.5421C33.2006 30.5429 33.981 30.5398 34.7607 30.5437C35.6513 30.5484 36.3076 31.1624 36.3123 31.9874C36.317 32.8273 35.6576 33.4437 34.7482 33.4468C33.9685 33.4491 33.1881 33.4476 32.4084 33.4476C32.3131 33.4476 32.2185 33.4476 32.092 33.4476C32.092 33.5804 32.092 33.6843 32.092 33.789C32.092 34.9781 32.092 36.1671 32.092 37.3562C32.0912 38.7695 31.4662 39.5882 30.1037 39.9632C30.0865 39.9679 30.074 39.9859 30.0592 39.9976C25.267 39.9999 20.4701 39.9999 15.6732 39.9999ZM31.206 29.9351C30.3045 29.9351 29.4287 29.9351 28.5537 29.9351C27.9748 29.9351 27.5193 29.7109 27.2006 29.2156C27.1568 29.1484 27.0568 29.0765 26.9826 29.0757C25.7943 29.0679 24.6053 29.0663 23.417 29.0741C23.1521 29.0757 22.9474 29.2288 22.9396 29.496C22.9185 30.2132 22.9326 30.9312 22.9326 31.6367C22.9771 31.657 22.9943 31.6718 23.0115 31.6718C24.2974 31.6749 25.5834 31.6796 26.8693 31.6718C26.9428 31.671 27.0498 31.5773 27.0834 31.5015C27.3631 30.8562 27.8529 30.5452 28.549 30.5445C29.3287 30.5437 30.1076 30.5445 30.8873 30.5437C30.9904 30.5437 31.0935 30.5335 31.2076 30.5273C31.206 30.3249 31.206 30.1531 31.206 29.9351ZM27.1006 10.946C24.2693 10.946 21.4654 10.946 18.6224 10.946C18.7029 11.3132 18.742 11.6765 18.8646 12.0085C19.0326 12.4663 19.3959 12.7421 19.892 12.7452C21.8709 12.757 23.8498 12.7554 25.8287 12.7468C26.3123 12.7445 26.749 12.4171 26.8849 11.9616C26.9803 11.6374 27.0271 11.2991 27.1006 10.946ZM31.6724 27.9031C30.6295 27.9031 29.5857 27.8999 28.5428 27.9046C28.0779 27.907 27.7998 28.2312 27.9029 28.6327C27.974 28.9085 28.2068 29.057 28.5881 29.057C30.6357 29.0585 32.6826 29.0585 34.7303 29.0554C34.8451 29.0554 34.9967 29.0632 35.067 28.9984C35.2131 28.8616 35.4021 28.6843 35.4131 28.514C35.424 28.3429 35.2685 28.1304 35.1295 27.9913C35.0459 27.9077 34.856 27.907 34.7138 27.9062C33.7006 27.9007 32.6865 27.9031 31.6724 27.9031ZM31.6732 32.5718C32.7162 32.5718 33.7592 32.5749 34.8029 32.5702C35.181 32.5687 35.4428 32.3202 35.4388 31.9906C35.4349 31.6702 35.1849 31.4413 34.8185 31.4226C34.7599 31.4195 34.7013 31.4218 34.6428 31.4218C32.6537 31.4218 30.6654 31.4218 28.6763 31.4226C28.5693 31.4226 28.4607 31.421 28.356 31.4406C28.0185 31.5031 27.8256 31.8038 27.8998 32.1359C27.9615 32.4093 28.192 32.571 28.5428 32.5718C29.5865 32.5734 30.6303 32.5718 31.6732 32.5718ZM17.7451 32.6874C17.9693 32.6874 18.1935 32.6952 18.417 32.6859C18.7537 32.671 18.9998 32.4218 18.999 32.1132C18.9982 31.814 18.7701 31.5601 18.4428 31.5476C17.9857 31.5296 17.5271 31.5296 17.0701 31.5476C16.7389 31.5609 16.5201 31.8085 16.5209 32.1156C16.5217 32.4304 16.7607 32.671 17.1021 32.6859C17.3162 32.6952 17.531 32.6874 17.7451 32.6874Z" fill="url(#paint0_linear_13_8854)"/>
<path d="M26.971 19.9888C27.6312 20.8583 28.278 21.7115 28.9257 22.5646C29.1491 22.8599 29.3757 23.1529 29.596 23.4505C29.7983 23.7232 29.7843 23.9912 29.5687 24.1435C29.3476 24.299 29.0976 24.2388 28.8898 23.9669C28.1218 22.9591 27.3577 21.949 26.5913 20.9404C26.5444 20.8794 26.4944 20.8208 26.4257 20.7357C26.3507 20.8255 26.2827 20.9005 26.2218 20.9818C25.5171 21.9146 24.8132 22.8482 24.1085 23.7818C24.0616 23.8435 24.0179 23.9107 23.9608 23.9623C23.7812 24.1271 23.5788 24.1544 23.3757 24.0138C23.1882 23.8841 23.1499 23.6224 23.2944 23.4138C23.4663 23.1654 23.6546 22.9294 23.8366 22.688C24.5101 21.7943 25.1843 20.9005 25.8694 19.9912C25.2515 19.1763 24.6405 18.3701 24.0296 17.5646C23.8827 17.3708 23.7296 17.1802 23.5882 16.9818C23.4148 16.738 23.4398 16.4888 23.6429 16.3333C23.8413 16.1818 24.1038 16.2208 24.2819 16.4537C24.9585 17.3349 25.628 18.2208 26.3007 19.1052C26.3296 19.1435 26.3616 19.181 26.4163 19.249C26.4882 19.1607 26.5538 19.0849 26.614 19.0044C27.2241 18.1958 27.8343 17.3857 28.4437 16.5771C28.4851 16.5224 28.5241 16.4662 28.5702 16.4162C28.7444 16.2255 28.9851 16.1912 29.1718 16.3279C29.371 16.4732 29.4124 16.7208 29.2585 16.949C29.128 17.1427 28.9804 17.3248 28.8398 17.5115C28.2226 18.3279 27.6069 19.1451 26.971 19.9888Z" fill="url(#paint1_linear_13_8854)"/>
<path d="M15.9623 19.2956C15.9623 18.4964 15.9615 17.6972 15.9623 16.8987C15.963 16.505 16.1154 16.3042 16.406 16.3097C16.6927 16.3151 16.8388 16.5167 16.8388 16.9144C16.8396 18.4151 16.8959 19.9183 16.8209 21.4151C16.7638 22.548 17.9896 23.4526 19.0084 23.3144C19.4834 23.2503 19.9115 23.0792 20.2716 22.7573C20.638 22.43 20.8388 22.0339 20.8357 21.5269C20.8255 20.0167 20.8326 18.5058 20.8326 16.9956C20.8326 16.9081 20.8271 16.8191 20.8373 16.7331C20.8685 16.462 21.0545 16.2964 21.3029 16.3105C21.538 16.3237 21.7037 16.4933 21.706 16.7589C21.713 17.548 21.7099 18.3378 21.7099 19.1269C21.7099 19.8573 21.7099 20.5886 21.7099 21.3191C21.7099 22.6792 21.0021 23.648 19.7045 24.0636C18.1209 24.5706 16.3068 23.5886 16.0052 22.0386C15.9357 21.6808 15.967 21.3019 15.9638 20.9323C15.9576 20.387 15.9623 19.8417 15.9623 19.2956Z" fill="url(#paint2_linear_13_8854)"/>
<path d="M25.2483 37.1968C24.6444 37.1968 24.0405 37.2015 23.4373 37.196C22.5936 37.1874 21.953 36.564 21.9483 35.7546C21.9428 34.9522 22.5819 34.3124 23.4264 34.3046C24.653 34.2937 25.8803 34.2921 27.1077 34.3054C27.9569 34.314 28.5702 34.9491 28.5584 35.7726C28.5475 36.5757 27.9217 37.1866 27.0897 37.196C26.4756 37.2022 25.8623 37.1968 25.2483 37.1968ZM25.2514 36.3194C25.8452 36.3194 26.4381 36.3226 27.0319 36.3187C27.4295 36.3163 27.6717 36.103 27.6787 35.7624C27.6858 35.4069 27.4444 35.1819 27.0287 35.1804C25.842 35.1757 24.6545 35.1757 23.4678 35.1812C23.0772 35.1827 22.8264 35.4171 22.828 35.7507C22.8295 36.0812 23.0889 36.3163 23.4709 36.3187C24.0639 36.3226 24.6577 36.3194 25.2514 36.3194Z" fill="url(#paint3_linear_13_8854)"/>
<path d="M29.3091 12.7726C29.0716 12.7663 28.8872 12.5718 28.8942 12.3343C28.9005 12.0976 29.0942 11.9155 29.3325 11.921C29.5685 11.9265 29.7591 12.1249 29.752 12.357C29.7458 12.5874 29.5419 12.7788 29.3091 12.7726Z" fill="url(#paint4_linear_13_8854)"/>
<path d="M22.841 12.3471C22.5683 12.3471 22.2949 12.3541 22.0222 12.3455C21.7371 12.3361 21.5636 12.1744 21.555 11.9283C21.5457 11.6729 21.7285 11.4807 22.0207 11.476C22.5855 11.4666 23.1511 11.4658 23.716 11.4768C23.9972 11.4822 24.1652 11.6619 24.166 11.9127C24.1668 12.1682 24.0035 12.3346 23.7175 12.3447C23.4261 12.3549 23.1332 12.3471 22.841 12.3471Z" fill="url(#paint5_linear_13_8854)"/>
</g>
<defs>
<linearGradient id="paint0_linear_13_8854" x1="14.6425" y1="12.7093" x2="37.3778" y2="14.8555" gradientUnits="userSpaceOnUse">
<stop stop-color="#D0006F"/>
<stop offset="1" stop-color="#0055B2"/>
</linearGradient>
<linearGradient id="paint1_linear_13_8854" x1="23.4982" y1="16.9515" x2="30.0367" y2="17.6182" gradientUnits="userSpaceOnUse">
<stop stop-color="#D0006F"/>
<stop offset="1" stop-color="#0055B2"/>
</linearGradient>
<linearGradient id="paint2_linear_13_8854" x1="16.2162" y1="17.0094" x2="21.9845" y2="17.5335" gradientUnits="userSpaceOnUse">
<stop stop-color="#D0006F"/>
<stop offset="1" stop-color="#0055B2"/>
</linearGradient>
<linearGradient id="paint3_linear_13_8854" x1="22.2433" y1="34.5534" x2="28.4299" y2="36.3091" gradientUnits="userSpaceOnUse">
<stop stop-color="#D0006F"/>
<stop offset="1" stop-color="#0055B2"/>
</linearGradient>
<linearGradient id="paint4_linear_13_8854" x1="28.9324" y1="11.9965" x2="29.7867" y2="12.1037" gradientUnits="userSpaceOnUse">
<stop stop-color="#D0006F"/>
<stop offset="1" stop-color="#0055B2"/>
</linearGradient>
<linearGradient id="paint5_linear_13_8854" x1="21.6713" y1="11.5469" x2="23.995" y2="12.4051" gradientUnits="userSpaceOnUse">
<stop stop-color="#D0006F"/>
<stop offset="1" stop-color="#0055B2"/>
</linearGradient>
<clipPath id="clip0_13_8854">
<rect width="30" height="30" fill="white" transform="translate(10 10)"/>
</clipPath>
</defs>
</svg>
