<svg width="50" height="50" viewBox="0 0 50 50" fill="none" xmlns="http://www.w3.org/2000/svg">
<circle cx="25" cy="25" r="25" fill="#D0006F" fill-opacity="0.1"/>
<g clip-path="url(#clip0_13_8842)">
<path d="M22.8674 30.5412C22.8674 32.0451 22.8721 33.5357 22.8651 35.0256C22.8619 35.6873 22.8901 36.3561 22.8065 37.0092C22.6432 38.2857 21.519 39.2764 20.2283 39.2889C17.8987 39.3107 15.569 39.3115 13.2393 39.2896C11.7955 39.2756 10.6237 38.0686 10.5862 36.6225C10.5838 36.535 10.5846 36.4467 10.5846 36.3592C10.5846 31.6904 10.5846 27.0225 10.5846 22.3537C10.5846 20.5654 11.7385 19.4123 13.5268 19.4115C15.6713 19.4107 17.8158 19.4107 19.9604 19.4115C21.6916 19.4123 22.8635 20.5787 22.8651 22.3053C22.8674 24.5271 22.8658 26.7498 22.8658 28.9717C22.8658 29.0779 22.8658 29.185 22.8658 29.2904C23.4838 29.3146 24.0338 28.7037 24.0369 27.9811C24.0432 26.4021 24.0354 24.8232 24.0432 23.2443C24.0448 22.9842 24.0674 22.7154 24.1323 22.4646C24.4151 21.3693 25.3948 20.6107 26.5299 20.5865C26.6643 20.5834 26.7979 20.5857 26.9643 20.5857C26.9643 20.4561 26.9643 20.3514 26.9643 20.2475C26.9643 18.0154 26.9635 15.7834 26.9643 13.5514C26.9651 11.8021 28.1283 10.6381 29.876 10.6373C32.0299 10.6365 34.1846 10.6365 36.3385 10.6373C38.0705 10.6381 39.244 11.8037 39.244 13.5295C39.2455 18.2271 39.2455 22.9248 39.244 27.6225C39.2432 29.3529 38.0737 30.5217 36.3471 30.5225C34.183 30.5232 32.019 30.524 29.8549 30.5225C28.1299 30.5217 26.9643 29.3498 26.9635 27.617C26.9627 25.785 26.9635 23.9521 26.9635 22.1201C26.9635 22.0139 26.9635 21.9068 26.9635 21.8037C26.0674 21.56 25.2166 22.1998 25.2112 23.124C25.2026 24.6053 25.2088 26.0865 25.2088 27.5686C25.2088 29.3201 24.5893 30.1146 22.8674 30.5412ZM38.0533 25.8381C38.0533 22.3178 38.0533 18.8256 38.0533 15.3326C34.7416 15.3326 31.451 15.3326 28.151 15.3326C28.151 17.0857 28.151 18.824 28.151 20.5615C29.6096 20.5615 31.051 20.5615 32.5213 20.5615C32.4737 20.5037 32.4494 20.474 32.426 20.4451C32.1705 20.1357 32.1658 19.8232 32.4127 19.5873C32.6627 19.349 32.9823 19.3646 33.269 19.642C33.6408 20.0006 34.008 20.3639 34.3737 20.7287C34.626 20.9811 34.6565 21.3217 34.4213 21.5662C34.0229 21.9803 33.6135 22.385 33.1924 22.7764C32.9549 22.9967 32.619 22.967 32.4002 22.7475C32.1885 22.535 32.1729 22.2318 32.3604 21.9764C32.4065 21.9131 32.4557 21.8514 32.5127 21.7756C31.0338 21.7756 29.5955 21.7756 28.158 21.7756C28.158 23.142 28.158 24.4896 28.158 25.8389C31.4643 25.8381 34.7479 25.8381 38.0533 25.8381ZM11.7752 24.0982C11.7752 27.6186 11.7752 31.1115 11.7752 34.6021C15.0869 34.6021 18.3783 34.6021 21.6744 34.6021C21.6744 33.2373 21.6744 31.8896 21.6744 30.524C20.7674 30.524 19.8815 30.5334 18.9955 30.5178C18.7713 30.5139 18.6799 30.585 18.6018 30.7904C18.2026 31.8404 17.1151 32.4412 16.0205 32.2365C14.8987 32.0264 14.0994 31.0795 14.094 29.9537C14.0885 28.824 14.883 27.8592 15.9916 27.6475C17.1198 27.4318 18.2049 28.0326 18.6127 29.1154C18.683 29.3014 18.7651 29.3662 18.9651 29.3607C19.5494 29.3451 20.1346 29.3553 20.7198 29.3553C21.0377 29.3553 21.3557 29.3553 21.6705 29.3553C21.6705 27.5787 21.6705 25.8412 21.6705 24.0982C18.3643 24.0982 15.0807 24.0982 11.7752 24.0982ZM28.1135 14.1256C31.4651 14.1256 34.7627 14.1256 38.0713 14.1256C38.0713 13.8318 38.0854 13.5592 38.069 13.2881C38.0166 12.4662 37.3588 11.817 36.5385 11.8131C34.2479 11.8021 31.958 11.8037 29.6674 11.8123C28.9448 11.8154 28.3276 12.3193 28.1862 13.0318C28.1174 13.3803 28.1362 13.7459 28.1135 14.1256ZM21.6776 22.9139C21.6776 22.5709 21.7135 22.2467 21.6705 21.9342C21.5619 21.1498 20.9276 20.5881 20.1471 20.585C17.8666 20.5764 15.5862 20.5779 13.3057 20.5842C12.644 20.5857 12.0416 20.9936 11.8658 21.6225C11.7518 22.0303 11.7627 22.4732 11.7158 22.9139C15.0807 22.9139 18.3635 22.9139 21.6776 22.9139ZM28.1346 27.0256C28.1346 27.3092 28.1283 27.5615 28.1354 27.8139C28.1596 28.6553 28.8237 29.3404 29.6698 29.3451C31.9588 29.3576 34.2479 29.3553 36.5369 29.3459C37.2143 29.3436 37.833 28.8865 37.9901 28.2404C38.0838 27.8537 38.0682 27.4404 38.1033 27.0256C34.7471 27.0256 31.458 27.0256 28.1346 27.0256ZM11.7549 35.799C11.7549 36.0826 11.7487 36.335 11.7557 36.5873C11.7799 37.4287 12.444 38.1139 13.2901 38.1186C15.5791 38.1311 17.8682 38.1287 20.1573 38.1193C20.8346 38.117 21.4533 37.66 21.6104 37.0139C21.7041 36.6271 21.6885 36.2139 21.7237 35.799C18.3674 35.799 15.0783 35.799 11.7549 35.799ZM16.4393 28.7709C15.7979 28.7686 15.2674 29.2936 15.2651 29.9342C15.2627 30.5748 15.7885 31.1061 16.4291 31.1084C17.0705 31.1107 17.601 30.585 17.6033 29.9443C17.6049 29.3037 17.0799 28.7732 16.4393 28.7709Z" fill="url(#paint0_linear_13_8842)"/>
<path d="M21.1125 13.8441C21.118 14.3184 20.7281 14.7215 20.2539 14.7316C19.7695 14.7418 19.3578 14.3363 19.3594 13.8512C19.3609 13.3777 19.7586 12.9809 20.232 12.9785C20.7063 12.977 21.1063 13.3699 21.1125 13.8441Z" fill="url(#paint1_linear_13_8842)"/>
<path d="M37.2111 34.6176C36.7377 34.6238 36.3338 34.2324 36.3244 33.759C36.3142 33.2746 36.7197 32.8629 37.2049 32.8652C37.6791 32.8676 38.076 33.2645 38.0775 33.7379C38.0783 34.2113 37.6853 34.6113 37.2111 34.6176Z" fill="url(#paint2_linear_13_8842)"/>
<path d="M12.9096 13.5646C13.2205 13.5568 13.49 13.8076 13.5057 14.1185C13.5221 14.4396 13.2596 14.7217 12.9369 14.7295C12.6143 14.7373 12.34 14.4693 12.3408 14.1459C12.3416 13.8349 12.5979 13.5724 12.9096 13.5646Z" fill="url(#paint3_linear_13_8842)"/>
<path d="M24.6332 15.9044C24.9449 15.9099 25.2035 16.1708 25.2066 16.4817C25.2098 16.8044 24.9363 17.0755 24.6144 17.0692C24.2918 17.0638 24.0277 16.7841 24.041 16.4622C24.0543 16.1513 24.3215 15.8989 24.6332 15.9044Z" fill="url(#paint4_linear_13_8842)"/>
<path d="M26.3761 33.45C26.3753 33.7727 26.0995 34.0407 25.7776 34.0321C25.4659 34.0235 25.2104 33.7602 25.2104 33.4477C25.2112 33.1243 25.4862 32.8571 25.8089 32.8665C26.1206 32.875 26.3769 33.1391 26.3761 33.45Z" fill="url(#paint5_linear_13_8842)"/>
<path d="M32.8112 38.1384C32.8057 38.4611 32.5253 38.7251 32.2042 38.7111C31.8932 38.6978 31.6409 38.4291 31.6456 38.1181C31.651 37.7955 31.9307 37.5314 32.2526 37.5455C32.5643 37.5595 32.8167 37.8275 32.8112 38.1384Z" fill="url(#paint6_linear_13_8842)"/>
</g>
<defs>
<linearGradient id="paint0_linear_13_8842" x1="11.864" y1="13.1799" x2="40.4043" y2="16.7359" gradientUnits="userSpaceOnUse">
<stop stop-color="#D0006F"/>
<stop offset="1" stop-color="#0055B2"/>
</linearGradient>
<linearGradient id="paint1_linear_13_8842" x1="19.4376" y1="13.1341" x2="21.1835" y2="13.3516" gradientUnits="userSpaceOnUse">
<stop stop-color="#D0006F"/>
<stop offset="1" stop-color="#0055B2"/>
</linearGradient>
<linearGradient id="paint2_linear_13_8842" x1="36.4025" y1="33.0207" x2="38.1484" y2="33.2384" gradientUnits="userSpaceOnUse">
<stop stop-color="#D0006F"/>
<stop offset="1" stop-color="#0055B2"/>
</linearGradient>
<linearGradient id="paint3_linear_13_8842" x1="12.3929" y1="13.6678" x2="13.5535" y2="13.8125" gradientUnits="userSpaceOnUse">
<stop stop-color="#D0006F"/>
<stop offset="1" stop-color="#0055B2"/>
</linearGradient>
<linearGradient id="paint4_linear_13_8842" x1="24.0926" y1="16.0076" x2="25.2538" y2="16.1525" gradientUnits="userSpaceOnUse">
<stop stop-color="#D0006F"/>
<stop offset="1" stop-color="#0055B2"/>
</linearGradient>
<linearGradient id="paint5_linear_13_8842" x1="25.2625" y1="32.9697" x2="26.4232" y2="33.1143" gradientUnits="userSpaceOnUse">
<stop stop-color="#D0006F"/>
<stop offset="1" stop-color="#0055B2"/>
</linearGradient>
<linearGradient id="paint6_linear_13_8842" x1="31.6976" y1="37.6484" x2="32.8585" y2="37.793" gradientUnits="userSpaceOnUse">
<stop stop-color="#D0006F"/>
<stop offset="1" stop-color="#0055B2"/>
</linearGradient>
<clipPath id="clip0_13_8842">
<rect width="30" height="30" fill="white" transform="translate(10 10)"/>
</clipPath>
</defs>
</svg>
