<svg width="35" height="35" viewBox="0 0 35 35" fill="none" xmlns="http://www.w3.org/2000/svg">
<circle cx="17.5" cy="17.5" r="17.5" fill="#0055B2" fill-opacity="0.1"/>
<g clip-path="url(#clip0_13_8700)">
<path d="M24.2419 27.3705C23.3479 27.3705 22.4488 27.3705 21.5548 27.3705C21.2325 27.3705 21.1338 27.2717 21.1338 26.9547C21.1338 26.175 21.1338 25.3954 21.1338 24.6158C21.139 23.6802 21.8043 23.0098 22.7398 23.0046C22.8957 23.0046 23.0517 22.9994 23.2076 23.0046C23.2908 23.0098 23.3271 22.9838 23.3167 22.8954C23.3115 22.8642 23.3115 22.8278 23.3167 22.7967C23.3583 22.4588 23.3011 22.2041 22.9581 22.0066C22.6203 21.8091 22.4332 21.4401 22.402 21.0399C22.3604 20.4526 22.3292 19.8549 22.4176 19.2727C22.5267 18.5555 23.166 18.0305 23.8885 18.0097C24.1795 18.0046 24.4758 17.989 24.7616 18.0253C25.4685 18.1189 25.9987 18.6179 26.087 19.3299C26.1598 19.912 26.1598 20.5097 26.0818 21.0971C26.0142 21.5804 25.7336 21.9391 25.3074 22.1781C25.2138 22.2301 25.1723 22.2769 25.1826 22.386C25.193 22.5472 25.193 22.7135 25.1826 22.8746C25.1774 22.9786 25.2086 23.0046 25.3126 23.0046C25.5777 23.0046 25.8427 22.9786 26.1078 23.0305C26.8199 23.1709 27.3552 23.7842 27.3656 24.5118C27.376 25.3434 27.3708 26.175 27.3708 27.0066C27.3708 27.2509 27.2513 27.3653 26.9914 27.3653C26.0766 27.3705 25.1567 27.3705 24.2419 27.3705ZM25.1826 19.569C25.2554 19.569 25.323 19.569 25.3957 19.5742C25.4841 19.5846 25.4997 19.543 25.4945 19.4599C25.4633 19.1272 25.2034 18.8102 24.8864 18.7166C24.8448 18.6698 24.7824 18.6594 24.7253 18.6542C24.403 18.6335 24.0756 18.6023 23.7533 18.6646C23.3583 18.7426 23.1244 18.9973 23.0257 19.3871C22.9945 19.517 22.9997 19.569 23.166 19.5794C23.587 19.6106 23.956 19.4495 24.3303 19.3143C24.5589 19.2312 24.7357 19.252 24.8812 19.4443C24.9592 19.5534 25.0527 19.6054 25.1826 19.569ZM24.6837 24.8705C24.8864 24.9172 24.9955 24.8497 25.0475 24.6314C25.1047 24.3819 25.2034 24.1428 25.2866 23.8985C25.3802 23.6179 25.3802 23.6179 25.0735 23.6335C24.4706 23.6335 23.8677 23.6335 23.2596 23.6231C23.1348 23.6231 23.14 23.675 23.1712 23.7634C23.2856 24.096 23.3999 24.4235 23.5039 24.7613C23.5298 24.8445 23.561 24.8757 23.6494 24.8757C23.9976 24.8705 24.3407 24.8705 24.6837 24.8705ZM25.1878 20.2031C24.9436 20.2031 24.6889 20.2239 24.5226 19.9744C24.4706 19.9016 24.403 19.9536 24.3458 19.9744C23.956 20.1199 23.561 20.2447 23.1348 20.1979C23.0153 20.1823 22.9945 20.2343 22.9997 20.3382C23.0101 20.5046 22.9945 20.6761 23.0049 20.8424C23.0257 21.2426 23.218 21.5493 23.5974 21.6792C24.0132 21.8195 24.4498 21.7987 24.876 21.6844C25.1878 21.5908 25.3646 21.3673 25.4633 21.0659C25.5257 20.8736 25.4945 20.6813 25.4997 20.489C25.5049 20.1875 25.4997 20.1875 25.1878 20.2031ZM25.7804 24.4079C25.692 24.673 25.5984 24.9328 25.5101 25.1979C25.4269 25.4422 25.3542 25.4994 25.0995 25.4994C24.533 25.4994 23.9716 25.4994 23.4051 25.4994C23.1504 25.4994 23.0725 25.4474 22.9945 25.2031C22.8386 24.7405 22.6774 24.2831 22.5371 23.8206C22.4851 23.6594 22.4176 23.6542 22.2928 23.7218C21.9758 23.8881 21.7731 24.148 21.7627 24.5066C21.7471 25.2135 21.7575 25.9204 21.7523 26.6272C21.7523 26.7208 21.7783 26.7468 21.8718 26.7468C23.1816 26.7416 24.4966 26.7416 25.8063 26.7364C26.0714 26.7364 26.3365 26.7364 26.6016 26.7468C26.7107 26.752 26.7419 26.7156 26.7419 26.6064C26.7367 25.9204 26.7419 25.2343 26.7367 24.543C26.7315 24.1584 26.4768 23.8154 26.139 23.6906C26.0506 23.6594 26.0142 23.6698 25.9831 23.7634C25.9259 23.9817 25.8531 24.1948 25.7804 24.4079ZM24.5641 22.7083C24.5641 22.3809 24.5641 22.3809 24.2315 22.3809C23.9404 22.3809 23.9404 22.3809 23.9404 22.6771C23.9404 23.0046 23.9404 23.0046 24.2731 23.0046C24.5641 23.0046 24.5641 23.0046 24.5641 22.7083Z" fill="#131619"/>
<path d="M11.7679 18.0153C10.874 18.0153 9.97481 18.0153 9.08084 18.0153C8.76379 18.0153 8.66504 17.9166 8.66504 17.5943C8.66504 16.8199 8.66504 16.0507 8.66504 15.2762C8.66504 14.3147 9.33032 13.6494 10.2971 13.6494C10.4374 13.6494 10.5829 13.6442 10.7233 13.6494C10.8324 13.6546 10.8636 13.613 10.848 13.5195C10.8428 13.4987 10.848 13.4779 10.848 13.4623C10.8896 13.1245 10.8428 12.8542 10.4842 12.6567C10.1411 12.4644 9.95922 12.085 9.93323 11.69C9.89165 11.1027 9.86047 10.5049 9.94882 9.92282C10.0632 9.20556 10.6973 8.68062 11.4249 8.66502C11.716 8.65983 12.0122 8.64423 12.2981 8.68062C13.0102 8.77417 13.5351 9.27313 13.6235 9.98519C13.6962 10.5621 13.691 11.1546 13.6183 11.7316C13.5559 12.2253 13.27 12.5891 12.8386 12.8282C12.7451 12.8802 12.7087 12.9322 12.7139 13.0361C12.7243 13.1972 12.7243 13.3636 12.7139 13.5247C12.7087 13.6338 12.7503 13.6494 12.8438 13.6494C13.1089 13.6546 13.374 13.6286 13.6391 13.6806C14.3511 13.8209 14.8813 14.4343 14.8917 15.1671C14.902 15.9987 14.8968 16.8303 14.8917 17.6619C14.8917 17.9062 14.7721 18.0153 14.507 18.0153C13.5975 18.0153 12.6827 18.0153 11.7679 18.0153ZM12.4124 9.36149C12.3709 9.31471 12.3085 9.30432 12.2513 9.29912C11.9291 9.27833 11.6016 9.24714 11.2794 9.30951C10.8844 9.38748 10.6505 9.64215 10.5517 10.032C10.5205 10.1619 10.5257 10.2139 10.6921 10.2243C11.1131 10.2555 11.4821 10.0943 11.8563 9.9592C12.085 9.87604 12.2617 9.89683 12.4072 10.0891C12.4852 10.1879 12.5788 10.2451 12.7087 10.2087C12.7815 10.2087 12.849 10.2087 12.9218 10.2139C13.0102 10.2243 13.0257 10.1827 13.0205 10.0995C12.9842 9.77729 12.7295 9.46024 12.4124 9.36149ZM12.2097 15.5153C12.4124 15.5621 12.5216 15.4945 12.5736 15.2762C12.6307 15.0268 12.7295 14.7877 12.8126 14.5434C12.9062 14.2627 12.9062 14.2627 12.5996 14.2783C11.9966 14.2783 11.3937 14.2783 10.7856 14.2679C10.6609 14.2679 10.6661 14.3199 10.6973 14.4083C10.8116 14.7409 10.926 15.0683 11.0299 15.4062C11.0559 15.4893 11.0871 15.5205 11.1754 15.5205C11.5237 15.5153 11.8667 15.5153 12.2097 15.5153ZM12.4072 12.3345C12.7191 12.2409 12.8958 12.0174 12.9946 11.716C13.0569 11.5237 13.0257 11.3313 13.0309 11.139C13.0361 10.8376 13.0309 10.8376 12.7191 10.8532C12.4748 10.8532 12.2201 10.874 12.0538 10.6245C12.0018 10.5517 11.9343 10.6037 11.8771 10.6245C11.4873 10.77 11.0923 10.8948 10.6661 10.848C10.5465 10.8324 10.5257 10.8844 10.5309 10.9883C10.5413 11.1546 10.5257 11.3261 10.5361 11.4925C10.5569 11.8927 10.7492 12.1993 11.1287 12.3293C11.5445 12.4644 11.9758 12.4488 12.4072 12.3345ZM13.3116 15.0528C13.2233 15.3178 13.1349 15.5777 13.0413 15.8428C12.953 16.0923 12.8854 16.1442 12.6151 16.1442C12.0642 16.1442 11.5133 16.1442 10.9571 16.1442C10.6713 16.1442 10.6037 16.0923 10.5102 15.8168C10.3594 15.3594 10.2035 14.9072 10.0632 14.4498C10.0216 14.3095 9.95922 14.2991 9.84487 14.3563C9.50703 14.5226 9.30433 14.7929 9.29394 15.1671C9.27834 15.8688 9.28874 16.5704 9.28874 17.2721C9.28874 17.3656 9.31473 17.3968 9.40828 17.3968C10.7181 17.3916 12.033 17.3916 13.3428 17.3864C13.6079 17.3864 13.8729 17.3864 14.138 17.3968C14.2472 17.402 14.2835 17.3656 14.2783 17.2565C14.2731 16.5652 14.2835 15.8688 14.2731 15.1775C14.2628 14.7877 14.0549 14.5122 13.6962 14.3511C13.5975 14.3043 13.5455 14.3147 13.5143 14.4291C13.4519 14.637 13.3792 14.8449 13.3116 15.0528ZM12.0902 13.3428C12.0902 13.0309 12.0902 13.0309 11.7783 13.0309C11.4665 13.0309 11.4665 13.0309 11.4665 13.3428C11.4665 13.6546 11.4665 13.6546 11.7783 13.6546C12.0902 13.6494 12.0902 13.6494 12.0902 13.3428Z" fill="#131619"/>
<path d="M23.3067 14.2735C22.2984 14.2735 21.2953 14.2735 20.2869 14.2735C19.7932 14.2735 19.4242 14.0188 19.3046 13.603C19.1799 13.156 19.3566 12.7506 19.8036 12.4959C19.9023 12.4387 19.8815 12.3764 19.8815 12.3036C19.8815 11.4356 19.8815 10.5624 19.8815 9.69446C19.8815 9.04477 20.261 8.66016 20.9054 8.66016C22.5115 8.66016 24.1123 8.66016 25.7183 8.66016C26.3628 8.66016 26.7422 9.04477 26.7422 9.68926C26.7422 10.552 26.7422 11.4148 26.7422 12.2776C26.7422 12.392 26.7578 12.4595 26.8722 12.5167C27.262 12.7194 27.4387 13.1508 27.3244 13.5718C27.2204 13.972 26.8514 14.2631 26.42 14.2631C25.3857 14.2787 24.3462 14.2735 23.3067 14.2735ZM25.7703 13.0365C25.3233 13.0313 24.8763 13.0313 24.4242 13.0261C24.3202 13.0261 24.2474 13.0313 24.2111 13.156C24.1747 13.2859 24.0551 13.3379 23.92 13.3379C23.5198 13.3379 23.1144 13.3379 22.7142 13.3379C22.5687 13.3379 22.4543 13.2755 22.4127 13.1404C22.3815 13.0313 22.3192 13.0261 22.2308 13.0261C21.867 13.0313 21.5032 13.0261 21.1393 13.0261C20.8275 13.0261 20.5156 13.0209 20.2038 13.0261C20.0167 13.0313 19.8919 13.1612 19.8919 13.3327C19.8919 13.5042 20.0167 13.629 20.1986 13.6446C20.2454 13.6498 20.2869 13.6446 20.3337 13.6446C22.0749 13.6446 23.8161 13.6446 25.5572 13.6446C25.63 13.6446 25.6975 13.6394 25.7703 13.6342C25.999 13.6394 26.2225 13.6498 26.4512 13.6394C26.6331 13.6342 26.7578 13.4886 26.7474 13.3223C26.7422 13.1612 26.6227 13.0313 26.4512 13.0261C26.2225 13.0261 25.9938 13.0365 25.7703 13.0365ZM25.1882 12.3972C25.4585 12.3972 25.7339 12.3972 26.0042 12.4024C26.0926 12.4024 26.1289 12.3764 26.1289 12.2828C26.1237 11.3888 26.1289 10.4949 26.1237 9.6061C26.1237 9.4086 25.999 9.29425 25.8067 9.28905C25.5884 9.28386 25.3649 9.29425 25.1466 9.29945C25.1206 9.29425 25.0946 9.28905 25.0687 9.28905C23.6653 9.28905 22.262 9.28905 20.8587 9.28905C20.6248 9.28905 20.5104 9.4086 20.5104 9.65808C20.5104 10.5157 20.5156 11.3733 20.5052 12.2308C20.5052 12.3816 20.5468 12.4128 20.6872 12.4076C21.3316 12.3972 21.9709 12.4076 22.6154 12.4024C22.7973 12.4024 22.9325 12.4595 22.9896 12.6414C23.0052 12.6934 23.0208 12.7194 23.078 12.7194C23.2339 12.7142 23.3899 12.7142 23.5458 12.7194C23.603 12.7194 23.6185 12.6934 23.6341 12.6414C23.6913 12.4595 23.8264 12.4024 24.0136 12.4024C24.4086 12.4076 24.7984 12.4024 25.1882 12.3972Z" fill="#131619"/>
<path d="M12.7087 27.3711C11.7003 27.3711 10.6972 27.3711 9.68891 27.3711C9.18994 27.3711 8.81572 27.1112 8.70138 26.6798C8.58703 26.2329 8.75855 25.8431 9.20554 25.5936C9.30429 25.5364 9.2835 25.474 9.2835 25.4013C9.2835 24.5333 9.2835 23.6601 9.2835 22.7921C9.2835 22.1372 9.66292 21.7578 10.3282 21.7578C11.9238 21.7578 13.5247 21.7578 15.1203 21.7578C15.7648 21.7578 16.1442 22.1424 16.1442 22.7869C16.1442 23.6549 16.1442 24.5281 16.1442 25.3961C16.1442 25.5052 16.1702 25.5624 16.2741 25.6196C16.664 25.8275 16.8407 26.2537 16.7263 26.6798C16.6224 27.0801 16.2534 27.3711 15.822 27.3711C14.7825 27.3711 13.7482 27.3711 12.7087 27.3711ZM15.1671 26.737C15.3958 26.7422 15.6193 26.7526 15.8479 26.7422C16.0299 26.737 16.1546 26.5915 16.1442 26.4252C16.139 26.264 16.0195 26.1341 15.8479 26.1289C15.6245 26.1237 15.3958 26.1341 15.1671 26.1341C14.7201 26.1289 14.2731 26.1289 13.8209 26.1237C13.717 26.1237 13.6442 26.1289 13.6078 26.2537C13.5714 26.3836 13.4519 26.4356 13.3168 26.4356C12.9166 26.4356 12.5112 26.4356 12.1109 26.4356C11.9654 26.4356 11.8511 26.3732 11.8095 26.2381C11.7783 26.1289 11.7159 26.1237 11.6276 26.1237C11.2637 26.1289 10.8999 26.1237 10.5361 26.1237C10.2242 26.1237 9.9124 26.1185 9.60055 26.1237C9.41344 26.1289 9.2887 26.2589 9.2887 26.4304C9.2887 26.6019 9.41344 26.7266 9.59535 26.7422C9.64213 26.7474 9.68371 26.7422 9.73049 26.7422C11.4716 26.7422 13.2128 26.7422 14.954 26.7422C15.0267 26.7474 15.0943 26.7422 15.1671 26.737ZM14.5434 22.3919C14.5174 22.3867 14.4914 22.3815 14.4654 22.3815C13.0621 22.3815 11.6588 22.3815 10.2554 22.3815C10.0215 22.3815 9.9072 22.5011 9.9072 22.7505C9.9072 23.6081 9.9124 24.4657 9.902 25.3233C9.902 25.474 9.94358 25.5052 10.0839 25.5C10.7284 25.4896 11.3677 25.5 12.0122 25.4948C12.1941 25.4948 12.3292 25.552 12.3864 25.7339C12.402 25.7859 12.4176 25.8119 12.4748 25.8119C12.6307 25.8067 12.7866 25.8067 12.9425 25.8119C12.9997 25.8119 13.0153 25.7859 13.0309 25.7339C13.0881 25.552 13.2232 25.4948 13.4103 25.4948C13.8001 25.5 14.1899 25.4948 14.5798 25.4896C14.85 25.4896 15.1255 25.4896 15.3958 25.4948C15.4841 25.4948 15.5205 25.4688 15.5205 25.3753C15.5153 24.4813 15.5205 23.5873 15.5153 22.6986C15.5153 22.5011 15.3906 22.3867 15.1983 22.3815C14.98 22.3815 14.7617 22.3919 14.5434 22.3919Z" fill="#131619"/>
<path d="M19.3046 11.0609C19.2786 11.2065 19.2474 11.352 19.2266 11.5027C19.2058 11.6171 19.1331 11.5599 19.0759 11.5547C18.5197 11.4767 17.9688 11.4456 17.4075 11.5027C16.3992 11.6015 15.4584 11.9081 14.5956 12.4487C14.4709 12.5266 14.4241 12.511 14.3513 12.3915C14.1071 12.0017 14.0967 12.0017 14.5073 11.773C15.9574 10.9674 17.5062 10.6919 19.1486 10.9414C19.2058 10.9466 19.3358 10.9102 19.3046 11.0609Z" fill="#0055B2"/>
<path d="M18.0047 25.1881C17.6201 25.1881 17.2407 25.1465 16.8613 25.0946C16.7417 25.079 16.7106 25.0322 16.7366 24.9178C16.7729 24.7723 16.7521 24.58 16.8405 24.4968C16.9341 24.4085 17.1212 24.5072 17.2667 24.5228C18.2906 24.632 19.2833 24.5176 20.2553 24.1694C20.3748 24.1278 20.4372 24.1382 20.4632 24.263C20.4736 24.2993 20.4892 24.3357 20.5047 24.3721C20.6347 24.7047 20.6347 24.7047 20.302 24.8191C19.5536 25.0686 18.7844 25.1881 18.0047 25.1881Z" fill="#0055B2"/>
<path d="M11.2794 18.6339C11.4821 18.5404 11.5081 18.6755 11.5289 18.8626C11.6121 19.5591 11.8096 20.2296 12.1266 20.8585C12.1786 20.9624 12.163 21.004 12.059 21.0612C11.6173 21.2847 11.6225 21.2899 11.4301 20.8429C11.1651 20.2296 10.9936 19.5851 10.9052 18.9198C10.8688 18.6599 10.8688 18.6599 11.1339 18.6391C11.1703 18.6391 11.2067 18.6391 11.2794 18.6339Z" fill="#0055B2"/>
<path d="M24.6473 17.4076C24.5486 17.4336 24.533 17.3868 24.5278 17.3192C24.4498 16.5604 24.2419 15.8327 23.9041 15.1519C23.8677 15.0739 23.8677 15.0375 23.9508 14.9908C24.4134 14.7309 24.4082 14.7309 24.6161 15.2142C24.8916 15.8483 25.0527 16.5084 25.1463 17.1945C25.1619 17.3192 25.1411 17.392 25.0007 17.392C24.876 17.3868 24.7513 17.4024 24.6473 17.4076Z" fill="#0055B2"/>
<path d="M25.8117 26.742C24.5019 26.742 23.1869 26.7472 21.8772 26.7524C21.7836 26.7524 21.7576 26.7264 21.7576 26.6329C21.7628 25.926 21.7472 25.2192 21.768 24.5123C21.7784 24.1537 21.9759 23.8938 22.2982 23.7275C22.4281 23.6599 22.4957 23.6651 22.5424 23.8262C22.6828 24.2888 22.8439 24.7514 22.9998 25.2088C23.083 25.4478 23.1558 25.505 23.4104 25.505C23.977 25.505 24.5383 25.505 25.1048 25.505C25.3543 25.505 25.4323 25.4478 25.5154 25.2036C25.6038 24.9385 25.6973 24.6786 25.7857 24.4135C25.8325 24.4707 25.8117 24.5383 25.8169 24.6006C25.8117 25.3127 25.8117 26.0248 25.8117 26.742Z" fill="#AA9FF5"/>
<path d="M24.8759 21.6898C24.4497 21.8042 24.0132 21.8198 23.5974 21.6846C23.2179 21.5599 23.0308 21.248 23.0048 20.8478C22.9944 20.6815 23.01 20.51 22.9996 20.3437C22.9944 20.2397 23.0204 20.1878 23.1348 20.2033C23.561 20.2553 23.956 20.1306 24.3458 19.9799C24.403 19.9591 24.4705 19.9071 24.5225 19.9799C24.6888 20.2241 24.9383 20.2033 25.1878 20.2085C25.1878 20.3073 25.1878 20.4009 25.1878 20.4996C25.1982 20.8322 25.2034 21.1597 25.0111 21.4559C24.9591 21.5287 24.9227 21.6119 24.8759 21.6898Z" fill="#FCE3E4"/>
<path d="M25.8115 26.7415C25.8115 26.0243 25.8115 25.3122 25.8115 24.595C25.8115 24.5326 25.8271 24.465 25.7803 24.4079C25.853 24.1948 25.9258 23.9817 25.9882 23.7634C26.0142 23.6698 26.0557 23.6594 26.1441 23.6906C26.4871 23.8153 26.7418 24.1584 26.7418 24.543C26.747 25.2291 26.7418 25.9151 26.747 26.6064C26.747 26.7156 26.7158 26.7519 26.6067 26.7467C26.3416 26.7415 26.0765 26.7415 25.8115 26.7415Z" fill="#AA9FF5"/>
<path d="M24.6836 24.8711C24.3405 24.8711 23.9975 24.8711 23.6493 24.8815C23.5609 24.8815 23.5297 24.8451 23.5037 24.7672C23.3998 24.4345 23.2854 24.1019 23.1711 23.7692C23.1399 23.6809 23.1347 23.6289 23.2594 23.6289C23.8624 23.6341 24.4653 23.6341 25.0734 23.6393C24.959 24.0499 24.7823 24.4501 24.6836 24.8711Z" fill="#0055B2"/>
<path d="M25.1829 19.5698C25.053 19.6062 24.9594 19.5542 24.8815 19.4503C24.7308 19.258 24.5592 19.2372 24.3306 19.3203C23.9563 19.4555 23.5873 19.6166 23.1663 19.5854C23 19.5698 22.9896 19.523 23.026 19.3931C23.1247 19.0033 23.3638 18.7434 23.7536 18.6706C24.0707 18.6083 24.3981 18.6395 24.7256 18.6602C24.7775 18.6654 24.8451 18.6758 24.8867 18.7226C24.8919 18.785 24.9335 18.8266 24.9646 18.8733C25.0946 19.0812 25.1881 19.3099 25.1829 19.5698Z" fill="#FCE3E4"/>
<path d="M24.876 21.6897C24.9176 21.6117 24.9591 21.5285 25.0111 21.4558C25.2034 21.1595 25.1982 20.8321 25.1878 20.4994C25.1878 20.4007 25.1878 20.3071 25.1878 20.2084C25.4997 20.1928 25.5049 20.1928 25.4997 20.4942C25.4997 20.6865 25.5257 20.884 25.4633 21.0712C25.3697 21.3726 25.193 21.5961 24.876 21.6897Z" fill="#FCE3E4"/>
<path d="M24.5641 22.7083C24.5641 23.0046 24.5641 23.0046 24.2731 23.0046C23.9404 23.0046 23.9404 23.0046 23.9404 22.6771C23.9404 22.3809 23.9404 22.3809 24.2315 22.3809C24.5641 22.3809 24.5641 22.3809 24.5641 22.7083Z" fill="#FCE3E4"/>
<path d="M24.6836 24.871C24.7823 24.45 24.9591 24.055 25.0734 23.6392C25.3801 23.6236 25.3801 23.6236 25.2865 23.9042C25.2033 24.1485 25.1046 24.3876 25.0474 24.6371C24.9954 24.8502 24.8863 24.9178 24.6836 24.871Z" fill="#0055B2"/>
<path d="M25.1828 19.5692C25.188 19.3093 25.0944 19.0806 24.9593 18.8675C24.9281 18.8207 24.8865 18.7792 24.8813 18.7168C25.1984 18.8104 25.4583 19.1274 25.4895 19.46C25.4999 19.5432 25.4843 19.5796 25.3907 19.5744C25.3283 19.5692 25.2556 19.5692 25.1828 19.5692Z" fill="#FCE3E4"/>
<path d="M13.3377 17.386C12.028 17.386 10.713 17.3912 9.40323 17.3964C9.30968 17.3964 9.28369 17.3652 9.28369 17.2716C9.28889 16.5699 9.27849 15.8683 9.28889 15.1666C9.29409 14.7924 9.50199 14.5221 9.83982 14.3558C9.95417 14.2986 10.0165 14.309 10.0581 14.4494C10.1985 14.9067 10.3544 15.3589 10.5051 15.8163C10.5987 16.097 10.6662 16.1438 10.9521 16.1438C11.503 16.1438 12.054 16.1438 12.6101 16.1438C12.8804 16.1438 12.9531 16.0918 13.0363 15.8423C13.1246 15.5772 13.2182 15.3173 13.3066 15.0523C13.3533 15.1094 13.3325 15.177 13.3325 15.2394C13.3377 15.9566 13.3377 16.6687 13.3377 17.386Z" fill="#AA9FF5"/>
<path d="M12.4072 12.3344C11.981 12.4487 11.5444 12.4643 11.1286 12.3292C10.7492 12.2044 10.5621 11.8926 10.5361 11.4924C10.5257 11.3261 10.5413 11.1545 10.5309 10.9882C10.5257 10.8843 10.5517 10.8323 10.666 10.8479C11.0922 10.8999 11.4872 10.7751 11.877 10.6244C11.9342 10.6036 12.0018 10.5516 12.0538 10.6244C12.2201 10.8687 12.4696 10.8479 12.719 10.8531C12.719 10.9518 12.719 11.0454 12.719 11.1441C12.7294 11.4768 12.7346 11.8042 12.5423 12.1005C12.4904 12.1732 12.4488 12.2564 12.4072 12.3344Z" fill="#FCE3E4"/>
<path d="M13.3375 17.3866C13.3375 16.6694 13.3375 15.9573 13.3375 15.24C13.3375 15.1777 13.3531 15.1101 13.3115 15.0529C13.3791 14.845 13.4519 14.6371 13.5142 14.424C13.5454 14.3097 13.5974 14.3045 13.6961 14.3461C14.0548 14.5072 14.2627 14.7827 14.2731 15.1725C14.2887 15.8637 14.2731 16.5602 14.2783 17.2515C14.2783 17.3606 14.2471 17.397 14.1379 17.3918C13.8677 17.3866 13.6026 17.3866 13.3375 17.3866Z" fill="#AA9FF5"/>
<path d="M12.2099 15.5156C11.8669 15.5156 11.5239 15.5156 11.1756 15.526C11.0873 15.526 11.0561 15.4897 11.0301 15.4117C10.9261 15.0791 10.8118 14.7464 10.6974 14.4138C10.6663 14.3254 10.6611 14.2734 10.7858 14.2734C11.3887 14.2786 11.9916 14.2786 12.5997 14.2838C12.4854 14.6996 12.3087 15.0946 12.2099 15.5156Z" fill="#FCE3E4"/>
<path d="M12.7142 10.2143C12.5843 10.2507 12.4907 10.1987 12.4127 10.0948C12.262 9.90249 12.0905 9.8817 11.8618 9.96486C11.4876 10.1 11.1186 10.2611 10.6976 10.2299C10.5312 10.2143 10.5208 10.1676 10.5572 10.0376C10.656 9.64781 10.8951 9.38793 11.2849 9.31517C11.6019 9.2528 11.9294 9.28398 12.2568 9.30477C12.3088 9.30997 12.3764 9.32036 12.4179 9.36714C12.4231 9.42951 12.4647 9.47109 12.4959 9.51787C12.6258 9.72577 12.7142 9.95446 12.7142 10.2143Z" fill="#FCE3E4"/>
<path d="M12.4072 12.3342C12.4488 12.2562 12.4904 12.1731 12.5424 12.1003C12.7347 11.804 12.7295 11.4766 12.7191 11.144C12.7191 11.0452 12.7191 10.9517 12.7191 10.8529C13.0309 10.8373 13.0361 10.8373 13.0309 11.1388C13.0309 11.3311 13.0569 11.5286 12.9945 11.7157C12.8958 12.0171 12.7191 12.2406 12.4072 12.3342Z" fill="#FCE3E4"/>
<path d="M12.0905 13.3432C12.0905 13.6551 12.0905 13.6551 11.7786 13.6551C11.4668 13.6551 11.4668 13.6551 11.4668 13.3432C11.4668 13.0314 11.4668 13.0314 11.7786 13.0314C12.0905 13.0262 12.0905 13.0262 12.0905 13.3432Z" fill="#FCE3E4"/>
<path d="M12.21 15.5155C12.3087 15.0945 12.4854 14.6995 12.5998 14.2837C12.9064 14.2681 12.9064 14.2681 12.8129 14.5488C12.7297 14.7931 12.631 15.0321 12.5738 15.2816C12.527 15.4947 12.4179 15.5623 12.21 15.5155Z" fill="#FCE3E4"/>
<path d="M12.7141 10.2137C12.7193 9.95384 12.6257 9.72515 12.4906 9.51206C12.4594 9.46528 12.4178 9.4237 12.4126 9.36133C12.7296 9.45488 12.9895 9.77193 13.0207 10.1046C13.0311 10.1877 13.0155 10.2241 12.922 10.2189C12.8544 10.2137 12.7816 10.2137 12.7141 10.2137Z" fill="#FCE3E4"/>
<path d="M25.188 12.3972C24.7982 12.3972 24.4084 12.4076 24.0186 12.4024C23.8367 12.4024 23.7015 12.4543 23.6392 12.6415C23.6236 12.6882 23.608 12.7194 23.5508 12.7194C23.3949 12.7142 23.2389 12.7142 23.083 12.7194C23.0258 12.7194 23.0103 12.6934 22.9947 12.6415C22.9375 12.4595 22.8024 12.4024 22.6204 12.4024C21.9759 12.4076 21.3367 12.3972 20.6922 12.4076C20.5518 12.4076 20.5103 12.3764 20.5103 12.2309C20.5206 11.3733 20.5155 10.5157 20.5155 9.65809C20.5155 9.40861 20.6298 9.28906 20.8637 9.28906C22.267 9.28906 23.6703 9.28906 25.0737 9.28906C25.0997 9.28906 25.1256 9.29426 25.1516 9.29946C25.1672 9.40341 25.1932 9.50216 25.1932 9.60611C25.188 10.5365 25.188 11.4668 25.188 12.3972ZM22.0851 10.5313C21.7629 10.5313 21.7629 10.5313 21.7629 10.8483C21.7629 11.155 21.7629 11.155 22.0643 11.155C22.3866 11.155 22.3866 11.155 22.3866 10.8379C22.3814 10.5313 22.3814 10.5313 22.0851 10.5313ZM23.6288 10.8483C23.6288 10.5365 23.6288 10.5365 23.4157 10.5313C23.0051 10.5313 23.0051 10.5313 23.0051 10.7652C23.0051 11.155 23.0051 11.155 23.2389 11.155C23.6288 11.155 23.6288 11.155 23.6288 10.8483ZM24.5799 10.5313C24.2577 10.5313 24.2577 10.5313 24.2577 10.8483C24.2577 11.155 24.2577 11.155 24.5591 11.155C24.8814 11.155 24.8814 11.155 24.8814 10.8379C24.8762 10.5313 24.8762 10.5313 24.5799 10.5313Z" fill="url(#paint0_linear_13_8700)"/>
<path d="M25.1881 12.3969C25.1881 11.4666 25.1933 10.531 25.1881 9.60069C25.1881 9.49674 25.1621 9.39799 25.1465 9.29404C25.3648 9.28884 25.5883 9.27845 25.8066 9.28364C25.9989 9.28884 26.1236 9.40838 26.1236 9.60069C26.1288 10.4947 26.1236 11.3886 26.1288 12.2774C26.1288 12.371 26.0924 12.3969 26.0041 12.3969C25.7286 12.3969 25.4583 12.4021 25.1881 12.3969Z" fill="#0055B2"/>
<path d="M14.585 25.4948C14.1952 25.4948 13.8054 25.5052 13.4155 25.5C13.2336 25.5 13.0985 25.552 13.0361 25.7391C13.0205 25.7859 13.0049 25.8171 12.9478 25.8171C12.7918 25.8119 12.6359 25.8119 12.48 25.8171C12.4228 25.8171 12.4072 25.7911 12.3916 25.7391C12.3345 25.5572 12.1993 25.5 12.0174 25.5C11.3729 25.5052 10.7336 25.4948 10.0891 25.5052C9.94881 25.5052 9.90723 25.474 9.90723 25.3285C9.91762 24.4709 9.91242 23.6133 9.91242 22.7557C9.91242 22.5063 10.0268 22.3867 10.2607 22.3867C11.664 22.3867 13.0673 22.3867 14.4706 22.3867C14.4966 22.3867 14.5226 22.3919 14.5486 22.3971C14.5642 22.5011 14.5902 22.5998 14.5902 22.7038C14.585 23.6289 14.585 24.5645 14.585 25.4948ZM11.7783 23.9512C11.7783 23.6289 11.7783 23.6289 11.4561 23.6289C11.1546 23.6289 11.1546 23.6289 11.1546 23.9304C11.1546 24.2526 11.1546 24.2526 11.4769 24.2526C11.7783 24.2526 11.7783 24.2526 11.7783 23.9512ZM12.7191 23.6289C12.4072 23.6289 12.4072 23.6289 12.4072 23.9408C12.4072 24.2526 12.4072 24.2526 12.7191 24.2526C13.0309 24.2526 13.0309 24.2526 13.0309 23.9408C13.0257 23.6289 13.0257 23.6289 12.7191 23.6289ZM14.2731 23.9512C14.2731 23.6289 14.2731 23.6289 13.9509 23.6289C13.6494 23.6289 13.6494 23.6289 13.6494 23.9304C13.6494 24.2526 13.6494 24.2526 13.9717 24.2526C14.2731 24.2526 14.2731 24.2526 14.2731 23.9512Z" fill="url(#paint1_linear_13_8700)"/>
<path d="M23.3067 14.2735C22.2984 14.2735 21.2953 14.2735 20.2869 14.2735C19.7932 14.2735 19.4242 14.0188 19.3046 13.603C19.1799 13.156 19.3566 12.7506 19.8036 12.4959C19.9023 12.4387 19.8815 12.3764 19.8815 12.3036C19.8815 11.4356 19.8815 10.5624 19.8815 9.69446C19.8815 9.04477 20.261 8.66016 20.9054 8.66016C22.5115 8.66016 24.1123 8.66016 25.7183 8.66016C26.3628 8.66016 26.7422 9.04477 26.7422 9.68926C26.7422 10.552 26.7422 11.4148 26.7422 12.2776C26.7422 12.392 26.7578 12.4595 26.8722 12.5167C27.262 12.7194 27.4387 13.1508 27.3244 13.5718C27.2204 13.972 26.8514 14.2631 26.42 14.2631C25.3857 14.2787 24.3462 14.2735 23.3067 14.2735ZM25.7703 13.0365C25.3233 13.0313 24.8763 13.0313 24.4242 13.0261C24.3202 13.0261 24.2474 13.0313 24.2111 13.156C24.1747 13.2859 24.0551 13.3379 23.92 13.3379C23.5198 13.3379 23.1144 13.3379 22.7142 13.3379C22.5687 13.3379 22.4543 13.2755 22.4127 13.1404C22.3815 13.0313 22.3192 13.0261 22.2308 13.0261C21.867 13.0313 21.5032 13.0261 21.1393 13.0261C20.8275 13.0261 20.5156 13.0209 20.2038 13.0261C20.0167 13.0313 19.8919 13.1612 19.8919 13.3327C19.8919 13.5042 20.0167 13.629 20.1986 13.6446C20.2454 13.6498 20.2869 13.6446 20.3337 13.6446C22.0749 13.6446 23.8161 13.6446 25.5572 13.6446C25.63 13.6446 25.6975 13.6394 25.7703 13.6342C25.999 13.6394 26.2225 13.6498 26.4512 13.6394C26.6331 13.6342 26.7578 13.4886 26.7474 13.3223C26.7422 13.1612 26.6227 13.0313 26.4512 13.0261C26.2225 13.0261 25.9938 13.0365 25.7703 13.0365ZM25.1882 12.3972C25.4585 12.3972 25.7339 12.3972 26.0042 12.4024C26.0926 12.4024 26.1289 12.3764 26.1289 12.2828C26.1237 11.3888 26.1289 10.4949 26.1237 9.6061C26.1237 9.4086 25.999 9.29425 25.8067 9.28905C25.5884 9.28386 25.3649 9.29425 25.1466 9.29945C25.1206 9.29425 25.0946 9.28905 25.0687 9.28905C23.6653 9.28905 22.262 9.28905 20.8587 9.28905C20.6248 9.28905 20.5104 9.4086 20.5104 9.65808C20.5104 10.5157 20.5156 11.3733 20.5052 12.2308C20.5052 12.3816 20.5468 12.4128 20.6872 12.4076C21.3316 12.3972 21.9709 12.4076 22.6154 12.4024C22.7973 12.4024 22.9325 12.4595 22.9896 12.6414C23.0052 12.6934 23.0208 12.7194 23.078 12.7194C23.2339 12.7142 23.3899 12.7142 23.5458 12.7194C23.603 12.7194 23.6185 12.6934 23.6341 12.6414C23.6913 12.4595 23.8264 12.4024 24.0136 12.4024C24.4086 12.4076 24.7984 12.4024 25.1882 12.3972Z" fill="#131619"/>
<path d="M23.3067 14.2735C22.2984 14.2735 21.2953 14.2735 20.2869 14.2735C19.7932 14.2735 19.4242 14.0188 19.3046 13.603C19.1799 13.156 19.3566 12.7506 19.8036 12.4959C19.9023 12.4387 19.8815 12.3764 19.8815 12.3036C19.8815 11.4356 19.8815 10.5624 19.8815 9.69446C19.8815 9.04477 20.261 8.66016 20.9054 8.66016C22.5115 8.66016 24.1123 8.66016 25.7183 8.66016C26.3628 8.66016 26.7422 9.04477 26.7422 9.68926C26.7422 10.552 26.7422 11.4148 26.7422 12.2776C26.7422 12.392 26.7578 12.4595 26.8722 12.5167C27.262 12.7194 27.4387 13.1508 27.3244 13.5718C27.2204 13.972 26.8514 14.2631 26.42 14.2631C25.3857 14.2787 24.3462 14.2735 23.3067 14.2735ZM25.7703 13.0365C25.3233 13.0313 24.8763 13.0313 24.4242 13.0261C24.3202 13.0261 24.2474 13.0313 24.2111 13.156C24.1747 13.2859 24.0551 13.3379 23.92 13.3379C23.5198 13.3379 23.1144 13.3379 22.7142 13.3379C22.5687 13.3379 22.4543 13.2755 22.4127 13.1404C22.3815 13.0313 22.3192 13.0261 22.2308 13.0261C21.867 13.0313 21.5032 13.0261 21.1393 13.0261C20.8275 13.0261 20.5156 13.0209 20.2038 13.0261C20.0167 13.0313 19.8919 13.1612 19.8919 13.3327C19.8919 13.5042 20.0167 13.629 20.1986 13.6446C20.2454 13.6498 20.2869 13.6446 20.3337 13.6446C22.0749 13.6446 23.8161 13.6446 25.5572 13.6446C25.63 13.6446 25.6975 13.6394 25.7703 13.6342C25.999 13.6394 26.2225 13.6498 26.4512 13.6394C26.6331 13.6342 26.7578 13.4886 26.7474 13.3223C26.7422 13.1612 26.6227 13.0313 26.4512 13.0261C26.2225 13.0261 25.9938 13.0365 25.7703 13.0365ZM25.1882 12.3972C25.4585 12.3972 25.7339 12.3972 26.0042 12.4024C26.0926 12.4024 26.1289 12.3764 26.1289 12.2828C26.1237 11.3888 26.1289 10.4949 26.1237 9.6061C26.1237 9.4086 25.999 9.29425 25.8067 9.28905C25.5884 9.28386 25.3649 9.29425 25.1466 9.29945C25.1206 9.29425 25.0946 9.28905 25.0687 9.28905C23.6653 9.28905 22.262 9.28905 20.8587 9.28905C20.6248 9.28905 20.5104 9.4086 20.5104 9.65808C20.5104 10.5157 20.5156 11.3733 20.5052 12.2308C20.5052 12.3816 20.5468 12.4128 20.6872 12.4076C21.3316 12.3972 21.9709 12.4076 22.6154 12.4024C22.7973 12.4024 22.9325 12.4595 22.9896 12.6414C23.0052 12.6934 23.0208 12.7194 23.078 12.7194C23.2339 12.7142 23.3899 12.7142 23.5458 12.7194C23.603 12.7194 23.6185 12.6934 23.6341 12.6414C23.6913 12.4595 23.8264 12.4024 24.0136 12.4024C24.4086 12.4076 24.7984 12.4024 25.1882 12.3972Z" fill="#131619"/>
<path d="M15.167 26.7364C15.0942 26.7416 15.0266 26.7468 14.9539 26.7468C13.2127 26.7468 11.4715 26.7468 9.73036 26.7468C9.68358 26.7468 9.63681 26.7468 9.59523 26.7468C9.41331 26.7312 9.28857 26.6013 9.28857 26.4349C9.28857 26.2634 9.41331 26.1335 9.60042 26.1283C9.91227 26.1231 10.2241 26.1283 10.536 26.1283C10.8998 26.1283 11.2636 26.1283 11.6275 26.1283C11.721 26.1283 11.7782 26.1335 11.8094 26.2426C11.8509 26.383 11.9653 26.4401 12.1108 26.4401C12.511 26.4401 12.9164 26.4401 13.3166 26.4401C13.4518 26.4401 13.5713 26.3882 13.6077 26.2582C13.6441 26.1335 13.7117 26.1231 13.8208 26.1283C14.2678 26.1335 14.7148 26.1387 15.167 26.1387C15.2189 26.3362 15.2189 26.5337 15.167 26.7364Z" fill="#C5C4C9"/>
<path d="M14.585 25.4946C14.585 24.5643 14.5902 23.6287 14.585 22.6983C14.585 22.5944 14.559 22.4956 14.5435 22.3917C14.7618 22.3865 14.9852 22.3761 15.2035 22.3813C15.3958 22.3865 15.5206 22.506 15.5206 22.6983C15.5258 23.5923 15.5206 24.4863 15.5258 25.3751C15.5258 25.4686 15.4894 25.4946 15.401 25.4946C15.1256 25.4946 14.8553 25.4946 14.585 25.4946Z" fill="#0055B2"/>
<path d="M15.167 26.7366C15.219 26.5339 15.219 26.3364 15.167 26.1337C15.3957 26.1285 15.6192 26.1181 15.8479 26.1285C16.0194 26.1337 16.1389 26.2636 16.1441 26.4247C16.1493 26.5962 16.0246 26.7366 15.8479 26.7418C15.6192 26.7522 15.3957 26.7418 15.167 26.7366Z" fill="#87868E"/>
<path d="M22.0851 10.5312C22.3865 10.5312 22.3865 10.5312 22.3865 10.8379C22.3865 11.155 22.3865 11.155 22.0643 11.155C21.7628 11.155 21.7628 11.155 21.7628 10.8483C21.7576 10.5312 21.7576 10.5312 22.0851 10.5312Z" fill="white"/>
<path d="M23.6286 10.8483C23.6286 11.155 23.6286 11.155 23.2388 11.155C23.0049 11.155 23.0049 11.155 23.0049 10.7651C23.0049 10.5312 23.0049 10.5312 23.4155 10.5312C23.6286 10.5313 23.6286 10.5312 23.6286 10.8483Z" fill="white"/>
<path d="M24.5797 10.5312C24.8811 10.5312 24.8811 10.5312 24.8811 10.8379C24.8811 11.155 24.8811 11.155 24.5589 11.155C24.2574 11.155 24.2574 11.155 24.2574 10.8483C24.2522 10.5312 24.2522 10.5312 24.5797 10.5312Z" fill="white"/>
<path d="M11.7785 23.9512C11.7785 24.2526 11.7785 24.2526 11.477 24.2526C11.1548 24.2526 11.1548 24.2526 11.1548 23.9304C11.1548 23.6289 11.1548 23.6289 11.4562 23.6289C11.7785 23.6289 11.7785 23.6289 11.7785 23.9512Z" fill="white"/>
<path d="M12.7192 23.6289C13.0311 23.6289 13.0311 23.6289 13.0311 23.9408C13.0311 24.2526 13.0311 24.2526 12.7192 24.2526C12.4074 24.2526 12.4074 24.2526 12.4074 23.9408C12.4022 23.6289 12.4022 23.6289 12.7192 23.6289Z" fill="white"/>
<path d="M14.2731 23.9512C14.2731 24.2526 14.2731 24.2526 13.9717 24.2526C13.6494 24.2526 13.6494 24.2526 13.6494 23.9304C13.6494 23.6289 13.6494 23.6289 13.9509 23.6289C14.2731 23.6289 14.2731 23.6289 14.2731 23.9512Z" fill="white"/>
</g>
<defs>
<linearGradient id="paint0_linear_13_8700" x1="20.7193" y1="9.59337" x2="25.3218" y2="10.3764" gradientUnits="userSpaceOnUse">
<stop stop-color="#D0006F"/>
<stop offset="1" stop-color="#0055B2"/>
</linearGradient>
<linearGradient id="paint1_linear_13_8700" x1="10.1163" y1="22.691" x2="14.7187" y2="23.4741" gradientUnits="userSpaceOnUse">
<stop stop-color="#D0006F"/>
<stop offset="1" stop-color="#0055B2"/>
</linearGradient>
<clipPath id="clip0_13_8700">
<rect width="20" height="20" fill="white" transform="translate(8 8)"/>
</clipPath>
</defs>
</svg>
