<svg width="35" height="35" viewBox="0 0 35 35" fill="none" xmlns="http://www.w3.org/2000/svg">
<circle cx="17.5" cy="17.5" r="17.5" fill="#0055B2" fill-opacity="0.1"/>
<g clip-path="url(#clip0_13_8681)">
<path d="M17.7395 8.03906C17.9846 8.12077 18.2453 8.09743 18.4943 8.1519C18.6461 8.18303 18.8017 8.20249 18.9535 8.23362C19.1947 8.2842 19.3348 8.48264 19.2881 8.69665C19.2414 8.91455 19.0391 9.04295 18.7978 8.99626C17.5799 8.7628 16.3581 8.73556 15.1519 9.01572C11.7239 9.8056 9.37369 11.864 8.27253 15.1986C7.29198 18.1752 7.83284 20.9729 9.66163 23.5177C9.72778 23.611 9.77836 23.6305 9.8912 23.5799C10.5216 23.3037 11.2375 23.4476 11.7161 23.9379C12.1791 24.4165 12.3075 25.1324 12.0352 25.7395C11.755 26.3581 11.1441 26.7356 10.4632 26.7083C9.26863 26.6577 8.54101 25.362 9.11299 24.2959C9.16747 24.1908 9.15968 24.1324 9.09354 24.043C7.9379 22.5371 7.28031 20.8367 7.08186 18.9496C7.07797 18.9068 7.10521 18.8445 7.03906 18.8173C7.03906 18.2609 7.03906 17.7005 7.03906 17.1441C7.09354 17.1286 7.07408 17.0858 7.08186 17.0507C7.11688 16.7939 7.14801 16.5371 7.19081 16.2842C7.90677 12.0819 11.3075 8.76669 15.5293 8.1519C15.7472 8.12077 15.9729 8.13245 16.183 8.04684C16.7005 8.03906 17.2181 8.03906 17.7395 8.03906ZM11.397 25.0819C11.397 24.611 11.0196 24.2297 10.5488 24.2258C10.0702 24.2219 9.68109 24.6072 9.68498 25.0858C9.68887 25.5527 10.078 25.9379 10.5449 25.934C11.0118 25.934 11.397 25.5488 11.397 25.0819Z" fill="#0055B2"/>
<path d="M16.9963 25.0784C16.615 25.0784 16.2297 25.0784 15.8484 25.0784C15.541 25.0784 15.401 24.9345 15.3971 24.6232C15.3971 24.4364 15.3932 24.2458 15.3971 24.059C15.401 23.9656 15.3698 23.9267 15.2764 23.8994C14.8445 23.7749 14.436 23.6076 14.043 23.3897C13.9652 23.3469 13.9107 23.343 13.8484 23.4131C13.72 23.5493 13.5877 23.6815 13.4515 23.8138C13.2297 24.0317 13.0235 24.0356 12.8095 23.8216C12.2609 23.2769 11.7161 22.7321 11.1753 22.1835C10.9613 21.9656 10.9652 21.7633 11.1831 21.5415C11.3348 21.3858 11.5722 21.2496 11.6227 21.0629C11.6694 20.88 11.4476 20.6815 11.3737 20.4792C11.2803 20.2263 11.1792 19.9734 11.0974 19.7127C11.0663 19.6193 11.0274 19.5921 10.934 19.5921C10.7317 19.5959 10.5332 19.5959 10.3309 19.5921C10.0702 19.5843 9.92235 19.4364 9.92235 19.1757C9.91846 18.3858 9.91846 17.5921 9.92235 16.8022C9.92235 16.5415 10.0741 16.3936 10.3309 16.3897C10.5332 16.3858 10.7317 16.3858 10.934 16.3897C11.0274 16.3936 11.0663 16.3625 11.0936 16.2691C11.2142 15.8372 11.3815 15.4247 11.6072 15.0356C11.6617 14.9384 11.6383 14.8917 11.5683 14.8255C11.4282 14.6932 11.2881 14.5531 11.1558 14.4131C10.9768 14.2224 10.9729 14.0123 11.1558 13.8294C11.7122 13.2691 12.2725 12.7088 12.8329 12.1524C13.0274 11.9617 13.2336 11.9656 13.4321 12.1524C13.5722 12.2886 13.7122 12.4247 13.8445 12.5648C13.9068 12.631 13.9535 12.6465 14.0391 12.5998C14.436 12.378 14.8523 12.203 15.2881 12.0823C15.3737 12.059 15.401 12.0162 15.3971 11.9306C15.3932 11.7282 15.3932 11.5298 15.3971 11.3275C15.401 11.0668 15.5488 10.915 15.8056 10.9111C16.5955 10.9072 17.3893 10.9072 18.1792 10.9111C18.4515 10.9111 18.5955 11.0629 18.5994 11.3352C18.6033 11.5298 18.6033 11.7244 18.5994 11.9189C18.5955 12.0123 18.6227 12.0551 18.72 12.0823C19.1519 12.203 19.5644 12.3703 19.9535 12.5921C20.0469 12.6465 20.0974 12.6271 20.1636 12.557C20.2959 12.4131 20.436 12.2769 20.576 12.1446C20.7667 11.9656 20.9729 11.9578 21.1597 12.1446C21.7239 12.701 22.2803 13.2613 22.8367 13.8216C23.0274 14.0162 23.0235 14.2224 22.8367 14.4208C22.7045 14.5609 22.5644 14.701 22.4243 14.8333C22.362 14.8956 22.3387 14.9384 22.3893 15.0279C22.615 15.4208 22.7862 15.8411 22.9068 16.2769C22.9301 16.3625 22.969 16.3897 23.0546 16.3897C23.2609 16.3858 23.471 16.3858 23.6772 16.3897C23.9262 16.3975 24.078 16.5415 24.078 16.7944C24.0819 17.5921 24.0819 18.3897 24.078 19.1874C24.078 19.4364 23.9262 19.5843 23.6772 19.5921C23.4749 19.5998 23.2764 19.5998 23.0741 19.5921C22.9729 19.5882 22.9301 19.6154 22.899 19.7205C22.7784 20.1524 22.6072 20.5648 22.3854 20.9539C22.3348 21.0395 22.3543 21.0862 22.4204 21.1485C22.5527 21.273 22.6811 21.4014 22.8056 21.5337C23.0313 21.7633 23.0391 21.9656 22.8134 22.1913C22.2687 22.7399 21.7239 23.2847 21.1753 23.8294C20.969 24.0356 20.7628 24.0279 20.5488 23.8216C20.3854 23.666 20.2414 23.4131 20.0546 23.3742C19.8834 23.3391 19.6694 23.5376 19.471 23.6271C19.2297 23.736 18.9807 23.8294 18.7239 23.8956C18.6227 23.9228 18.5877 23.9656 18.5916 24.0668C18.5994 24.2419 18.5955 24.417 18.5955 24.5921C18.5955 24.9422 18.4632 25.0745 18.1169 25.0784C17.7473 25.0823 17.3698 25.0784 16.9963 25.0784ZM10.6967 17.9967C10.6967 18.2224 10.7045 18.452 10.6928 18.6777C10.685 18.8022 10.7317 18.8333 10.8445 18.8255C11.008 18.8177 11.1675 18.8216 11.3309 18.8255C11.5605 18.8294 11.6928 18.9306 11.7473 19.1563C11.8912 19.771 12.1286 20.3508 12.4632 20.8878C12.5877 21.0862 12.5605 21.2574 12.3932 21.4325C12.2764 21.5531 12.1597 21.6738 12.0352 21.7905C11.9652 21.8566 11.9729 21.8956 12.0391 21.9617C12.3776 22.2924 12.7122 22.6271 13.043 22.9656C13.1091 23.0356 13.1519 23.0279 13.2142 22.9617C13.3348 22.8333 13.4593 22.7088 13.5838 22.5882C13.7434 22.4364 13.9107 22.4092 14.0974 22.5259C14.6383 22.8683 15.222 23.1057 15.8445 23.2535C16.078 23.308 16.1714 23.4403 16.1792 23.6893C16.1831 23.8528 16.1831 24.0123 16.1792 24.1757C16.1753 24.2691 16.1947 24.3119 16.3037 24.3119C16.7706 24.3041 17.2375 24.3041 17.7045 24.3119C17.8134 24.3119 17.8329 24.273 17.829 24.1757C17.8212 24.0084 17.8251 23.8372 17.829 23.6699C17.8367 23.4364 17.934 23.308 18.1597 23.2535C18.7745 23.1057 19.3543 22.8761 19.8912 22.5376C20.0974 22.4092 20.257 22.4325 20.436 22.6037C20.5566 22.7205 20.6772 22.8372 20.7939 22.9617C20.8562 23.0279 20.8951 23.0395 20.9613 22.9656C21.292 22.6271 21.6266 22.2924 21.9652 21.9617C22.0469 21.8839 22.0196 21.8411 21.9535 21.7788C21.8367 21.6699 21.72 21.5531 21.6072 21.4364C21.436 21.2613 21.4087 21.094 21.5371 20.8956C21.8718 20.3586 22.1091 19.7827 22.2531 19.164C22.3076 18.9306 22.4399 18.8333 22.685 18.8294C22.8484 18.8255 23.008 18.8255 23.1714 18.8294C23.2648 18.8333 23.3076 18.8138 23.3076 18.7049C23.2998 18.238 23.3037 17.771 23.3076 17.3041C23.3076 17.1991 23.2725 17.1718 23.1753 17.1757C23.008 17.1835 22.8367 17.1835 22.6694 17.1757C22.4438 17.1679 22.3076 17.0668 22.257 16.8605C22.113 16.2302 21.8718 15.6426 21.5255 15.094C21.4126 14.9111 21.4399 14.7399 21.5916 14.5804C21.6967 14.4675 21.8056 14.3547 21.9224 14.2535C22.0196 14.1679 22.0352 14.1135 21.9301 14.0123C21.6072 13.7049 21.292 13.3858 20.9807 13.0668C20.9029 12.9851 20.8523 12.9617 20.7667 13.0629C20.6772 13.1718 20.5683 13.2652 20.4671 13.3664C20.2492 13.5804 20.1013 13.6037 19.8484 13.4403C19.3348 13.1173 18.7784 12.8956 18.1908 12.7555C17.934 12.6932 17.8329 12.5687 17.829 12.3041C17.8251 12.1407 17.8251 11.9812 17.829 11.8177C17.829 11.7399 17.8173 11.701 17.7278 11.701C17.2492 11.7049 16.7667 11.7049 16.2881 11.701C16.2025 11.701 16.1792 11.7321 16.1792 11.8138C16.1831 11.9812 16.1831 12.1524 16.1792 12.3197C16.1753 12.5609 16.0741 12.6971 15.8406 12.7516C15.2259 12.8956 14.65 13.1329 14.113 13.4675C13.9185 13.5882 13.7511 13.5648 13.5838 13.4092C13.4593 13.2886 13.3309 13.164 13.2142 13.0356C13.1558 12.9734 13.1169 12.9773 13.0585 13.0356C12.72 13.378 12.3815 13.7166 12.0391 14.0512C11.9768 14.1135 11.9807 14.1485 12.0391 14.2068C12.1675 14.3275 12.292 14.452 12.4087 14.5765C12.5644 14.7438 12.5877 14.915 12.4671 15.1057C12.1286 15.6426 11.8951 16.2185 11.7473 16.8333C11.6928 17.059 11.5683 17.1601 11.3348 17.1718C11.1792 17.1796 11.0235 17.1874 10.8679 17.1718C10.7122 17.1563 10.685 17.2185 10.6928 17.3547C10.7045 17.5687 10.6967 17.7827 10.6967 17.9967Z" fill="#131619"/>
<path d="M17.1054 27.9613C16.3466 27.9574 15.7085 27.8991 15.0782 27.7707C14.8175 27.7162 14.6852 27.5333 14.7357 27.2999C14.7824 27.082 14.977 26.9652 15.226 27.0119C17.3233 27.3971 19.335 27.1481 21.2182 26.1403C23.8525 24.7356 25.4828 22.5528 26.0237 19.6111C26.4984 17.0119 25.8953 14.6423 24.3544 12.5022C24.2766 12.3932 24.2143 12.366 24.0782 12.4244C23.4167 12.7084 22.6346 12.5061 22.1832 11.9458C21.7241 11.3738 21.6968 10.5644 22.121 9.97689C22.549 9.37767 23.3116 9.13642 24.0003 9.37767C24.6774 9.61502 25.1248 10.2843 25.0859 11.0041C25.0743 11.2454 25.0159 11.4827 24.8914 11.689C24.8252 11.7979 24.8408 11.8641 24.9108 11.9574C25.8291 13.152 26.4673 14.4827 26.7396 15.9613C27.44 19.7512 26.3622 22.9691 23.4867 25.5411C21.9303 26.9341 20.0743 27.689 18.0003 27.9069C17.6657 27.9458 17.3272 27.9691 17.1054 27.9613ZM23.4478 11.7746C23.9186 11.7784 24.3038 11.401 24.3116 10.9302C24.3194 10.4555 23.9264 10.0625 23.4517 10.0625C22.9848 10.0625 22.6034 10.4477 22.5996 10.9185C22.5996 11.3893 22.977 11.7707 23.4478 11.7746Z" fill="#0055B2"/>
<path d="M20.5879 8.73542C20.8019 8.73931 20.9653 8.90662 20.9692 9.11674C20.9692 9.33464 20.7902 9.51363 20.5762 9.50973C20.37 9.50584 20.1949 9.32685 20.1949 9.12063C20.191 8.90662 20.37 8.73152 20.5879 8.73542Z" fill="#131619"/>
<path d="M13.4282 27.2685C13.2181 27.2685 13.0469 27.0973 13.043 26.891C13.0391 26.6809 13.2259 26.4941 13.436 26.4941C13.65 26.4941 13.8251 26.677 13.8173 26.8988C13.8135 27.1089 13.6461 27.2685 13.4282 27.2685Z" fill="#131619"/>
<path d="M11.3971 25.0816C11.3971 25.5525 11.0119 25.9338 10.545 25.9338C10.0781 25.9338 9.68898 25.5525 9.68509 25.0855C9.6812 24.6069 10.0703 24.2217 10.5489 24.2256C11.0197 24.2256 11.3971 24.6069 11.3971 25.0816Z" fill="#131619"/>
<path d="M10.6965 17.9959C10.6965 17.7819 10.7043 17.5679 10.6926 17.3539C10.6848 17.2177 10.7121 17.1554 10.8677 17.171C11.0233 17.1866 11.179 17.1788 11.3346 17.171C11.5681 17.1593 11.6926 17.0582 11.7471 16.8325C11.891 16.2177 12.1284 15.6379 12.4669 15.1049C12.5875 14.9103 12.5642 14.743 12.4086 14.5757C12.2879 14.4473 12.1634 14.3228 12.0389 14.206C11.9766 14.1477 11.9766 14.1126 12.0389 14.0504C12.3813 13.7158 12.7198 13.3733 13.0584 13.0348C13.1167 12.9765 13.1556 12.9726 13.214 13.0348C13.3346 13.1632 13.4591 13.2839 13.5836 13.4084C13.7471 13.5679 13.9183 13.5912 14.1128 13.4667C14.6498 13.1321 15.2257 12.8947 15.8405 12.7508C16.0739 12.6963 16.1712 12.5601 16.179 12.3189C16.1829 12.1516 16.1829 11.9804 16.179 11.813C16.1751 11.7313 16.1984 11.7002 16.2879 11.7002C16.7665 11.7041 17.249 11.7041 17.7276 11.7002C17.821 11.7002 17.8327 11.743 17.8288 11.8169C17.8249 11.9804 17.8249 12.1399 17.8288 12.3033C17.8327 12.5679 17.9338 12.6924 18.1907 12.7547C18.7821 12.8947 19.3346 13.1165 19.8482 13.4395C20.1012 13.599 20.2529 13.5757 20.4669 13.3656C20.5681 13.2644 20.677 13.171 20.7665 13.0621C20.8482 12.9648 20.8988 12.9881 20.9805 13.066C21.2918 13.385 21.607 13.7041 21.93 14.0115C22.035 14.1088 22.0233 14.1671 21.9222 14.2527C21.8054 14.3539 21.6965 14.4667 21.5914 14.5796C21.4397 14.7391 21.4124 14.9103 21.5253 15.0932C21.8677 15.6418 22.1128 16.2294 22.2568 16.8597C22.3035 17.066 22.4436 17.1671 22.6693 17.1749C22.8366 17.1827 23.0078 17.1827 23.1751 17.1749C23.2724 17.171 23.3113 17.1944 23.3074 17.3033C23.3035 17.7702 23.2996 18.2372 23.3074 18.7041C23.3074 18.813 23.2646 18.8325 23.1712 18.8286C23.0078 18.8208 22.8482 18.8247 22.6848 18.8286C22.4397 18.8325 22.3074 18.9298 22.2529 19.1632C22.1089 19.778 21.8716 20.3578 21.537 20.8947C21.4124 21.0971 21.4397 21.2605 21.607 21.4356C21.7198 21.5523 21.8327 21.6691 21.9533 21.778C22.0194 21.8403 22.0467 21.8831 21.965 21.9609C21.6265 22.2916 21.2918 22.6263 20.9611 22.9648C20.891 23.0348 20.8521 23.0232 20.7938 22.9609C20.677 22.8364 20.5603 22.7196 20.4358 22.6029C20.2568 22.4317 20.0973 22.4084 19.891 22.5368C19.3541 22.8753 18.7782 23.1088 18.1595 23.2527C17.9338 23.3072 17.8327 23.4356 17.8288 23.6691C17.8249 23.8364 17.821 24.0076 17.8288 24.1749C17.8327 24.2722 17.8093 24.3111 17.7043 24.3111C17.2373 24.3033 16.7704 24.3033 16.3035 24.3111C16.1945 24.3111 16.1751 24.2722 16.179 24.1749C16.1868 24.0115 16.1829 23.8519 16.179 23.6885C16.1751 23.4434 16.0817 23.3111 15.8443 23.2527C15.2218 23.1049 14.6381 22.8675 14.0973 22.5251C13.9105 22.4084 13.7471 22.4356 13.5836 22.5874C13.4552 22.708 13.3307 22.8325 13.214 22.9609C13.1517 23.027 13.1128 23.0309 13.0428 22.9648C12.7121 22.6263 12.3774 22.2916 12.0389 21.9609C11.9728 21.8986 11.965 21.8558 12.035 21.7897C12.1595 21.6768 12.2763 21.5562 12.393 21.4317C12.5603 21.2566 12.5875 21.0893 12.463 20.887C12.1245 20.35 11.891 19.7741 11.7471 19.1554C11.6926 18.9298 11.5603 18.8286 11.3307 18.8247C11.1673 18.8208 11.0078 18.8169 10.8443 18.8247C10.7276 18.8325 10.6848 18.8014 10.6926 18.6768C10.7043 18.4473 10.6965 18.2216 10.6965 17.9959ZM16.9922 14.7819C15.2218 14.7858 13.7782 16.2372 13.7821 18.0037C13.786 19.7741 15.2412 21.2216 17.0039 21.2138C18.7743 21.2099 20.2218 19.7547 20.214 17.992C20.2101 16.2216 18.7587 14.778 16.9922 14.7819Z" fill="url(#paint0_linear_13_8681)"/>
<path d="M23.4479 11.7746C22.977 11.7707 22.5996 11.3893 22.5996 10.9185C22.5996 10.4477 22.9809 10.0664 23.4517 10.0625C23.9265 10.0625 24.3156 10.4555 24.3117 10.9302C24.3039 11.401 23.9187 11.7785 23.4479 11.7746Z" fill="#131619"/>
<path d="M16.9924 14.7822C18.7589 14.7783 20.2103 16.2219 20.2181 17.9924C20.2259 19.755 18.7745 21.2102 17.008 21.2141C15.2414 21.218 13.7901 19.7706 13.7862 18.004C13.7784 16.2375 15.222 14.7861 16.9924 14.7822ZM16.9924 20.4359C18.327 20.4398 19.4282 19.3464 19.436 18.0079C19.4438 16.6772 18.3504 15.5721 17.0118 15.5604C15.6733 15.5488 14.5605 16.6538 14.5566 17.9962C14.5605 19.3309 15.6578 20.432 16.9924 20.4359Z" fill="#0055B2"/>
</g>
<defs>
<linearGradient id="paint0_linear_13_8681" x1="11.2546" y1="12.8189" x2="23.8176" y2="14.3853" gradientUnits="userSpaceOnUse">
<stop stop-color="#D0006F"/>
<stop offset="1" stop-color="#0055B2"/>
</linearGradient>
<clipPath id="clip0_13_8681">
<rect width="20" height="20" fill="white" transform="translate(7 8)"/>
</clipPath>
</defs>
</svg>
